/* XPM */
static char *_a4ba5e9ceda43a7f95f618c7aa970bbtCoNbscvQRGnlfYU[] = {
/* columns rows colors chars-per-pixel */
"64 64 3 1 ",
"  c #005080",
". c black",
": c white",
/* pixels */
"                                                                ",
"                                                                ",
"                                                                ",
"              ...................................               ",
"             ..:::::::::::::::::::::::::::::::::..              ",
"            ..:::::::::::::::::::::::::::::::::::..             ",
"            .:::::::::::::::::::::::::::::::::::::.             ",
"            .:::::::::::::::::::::::::::::::::::::.             ",
"            .:::::::::::::::::::::::::::::::::::::.             ",
"            .:::::::::::::::::::::::::::::::::::::.             ",
"            .:::::::::::::::::::::::::::::::::::::.             ",
"            .:::::::::::::::::::::::::::::::::::::.             ",
"            .:::::::::::::::::::::::::::::::::::::.             ",
"            .:::::::::::::::::::::::::::::::::::::.             ",
"            .:::::::::::::::::::::::::::::::::::::.             ",
"            .::::::::::::.......::::::::::::::::::.             ",
"            .:::::::::::..     ..:::::::::::::::::.             ",
"            .:::::::::::.       .:::::::::::::::::.             ",
"            .:::::::::::.       .:::::::::::::::::.             ",
"            .:::::::::::.       .:::::::::::::::::.             ",
"            .:::::::::::.       .:::::::::::::::::.             ",
"            .:::::::::::.       .:::::::::::::::::.             ",
"            .:::::::::::.       .:::::::::::::::::.             ",
"            .:::::::::::.       .:::::::::::::::::.             ",
"            .:::::::::::.       .:::::::::::::::::.             ",
"            .:::::::::::.       .:::::::::::::::::.             ",
"            .:::::::::::.       .:::::::::::::::::.             ",
"            .:::::::::::.       .:::::::::::::::::.             ",
"            .:::::::::::.       .:::::::::::::::::.             ",
"            .:::::::::::.       .:::::::::::::::::.             ",
"            .:::::::::::.       .:::::::::::::::::.             ",
"            .:::::::::::.       .:::::::::::::::::.             ",
"            .:::::::::::.       .:::::::::::::::::.             ",
"            .:::::::::::.       .:::::::::::::::::.             ",
"            .:::::::::::.       .:::::::::::::::::.             ",
"            .:::::::::::.       .:::::::::::::::::.             ",
"            .:::::::::::.       .:::::::::::::::::.             ",
"            .:::::::::::.       .:::::::::::::::::.             ",
"            .:::::::::::.       .:::::::::::::::::.             ",
"            .:::::::::::.       .:::::::::::::::::.             ",
"            .:::::::::::.       .:::::::::::::::::.             ",
"            .:::::::::::.       .:::::::::::::::::.             ",
"            .:::::::::::.       .:::::::::::::::::.             ",
"            .:::::::::::.       .:::::::::::::::::.             ",
"            .:::::::::::.       .:::::::::::::::::.             ",
"            .:::::::::::.       .:::::::::::::::::.             ",
"            .:::::::::::.       .:::::::::::::::::.             ",
"            .:::::::::::.       .:::::::::::::::::.             ",
"            .:::::::::::..     ..:::::::::::::::::.             ",
"            .::::::::::::.......::::::::::::::::::.             ",
"            .:::::::::::::::::::::::::::::::::::::.             ",
"            .:::::::::::::::::::::::::::::::::::::.             ",
"            .:::::::::::::::::::::::::::::::::::::.             ",
"            .:::::::::::::::::::::::::::::::::::::.             ",
"            .:::::::::::::::::::::::::::::::::::::.             ",
"            .:::::::::::::::::::::::::::::::::::::.             ",
"            .:::::::::::::::::::::::::::::::::::::.             ",
"            .:::::::::::::::::::::::::::::::::::::.             ",
"            ..:::::::::::::::::::::::::::::::::::..             ",
"             ..:::::::::::::::::::::::::::::::::..              ",
"              ...................................               ",
"                                                                ",
"                                                                ",
"                                                                "
};
