/* XPM */
static char *_27744b5e1b74c80f3793fd76b84af19WvcrAVVC1OhCXdQy[] = {
/* columns rows colors chars-per-pixel */
"64 64 3 1 ",
"  c #005080",
". c black",
"; c white",
/* pixels */
"                                                                ",
"                                                                ",
"                                                                ",
"                                                                ",
"                                                                ",
"                           ...........                          ",
"                          ..;;;;;;;;;..                         ",
"                         ..;;;;;;;;;;;..                        ",
"                        ..;;;;;;;;;;;;;..                       ",
"                       ..;;;;;;;;;;;;;;;.                       ",
"                      ..;;;;;;;;;;;;;;;;.                       ",
"                     ..;;;;;;;;;;;;;;;;;.                       ",
"                    ..;;;;;;;;;;;;;;;;;;.                       ",
"                   ..;;;;;;;;;;;;;;;;;;;.                       ",
"                  ..;;;;;;;;;;;;;;;;;;;;.                       ",
"                  .;;;;;;;;;;;;;;;;;;;;;.                       ",
"                  .;;;;;;;;;;;;;;;;;;;;;.                       ",
"                  ..;;;;;;;;;;;;;;;;;;;;.                       ",
"                   ..;;;;;;;;;;;;;;;;;;;.                       ",
"                    ...;;;;;;;;;;;;;;;;;.                       ",
"                      ..;;;;;;;;;;;;;;;;.                       ",
"                       ..;;;;;;;;;;;;;;;.                       ",
"                        .;;;;;;;;;;;;;;;.                       ",
"                        .;;;;;;;;;;;;;;;.                       ",
"                        .;;;;;;;;;;;;;;;.                       ",
"                        .;;;;;;;;;;;;;;;.                       ",
"                        .;;;;;;;;;;;;;;;.                       ",
"                        .;;;;;;;;;;;;;;;.                       ",
"                        .;;;;;;;;;;;;;;;.                       ",
"                        .;;;;;;;;;;;;;;;.                       ",
"                        .;;;;;;;;;;;;;;;.                       ",
"                        .;;;;;;;;;;;;;;;.                       ",
"                        .;;;;;;;;;;;;;;;.                       ",
"                        .;;;;;;;;;;;;;;;.                       ",
"                        .;;;;;;;;;;;;;;;.                       ",
"                        .;;;;;;;;;;;;;;;.                       ",
"                        .;;;;;;;;;;;;;;;.                       ",
"                        .;;;;;;;;;;;;;;;.                       ",
"                        .;;;;;;;;;;;;;;;.                       ",
"                        .;;;;;;;;;;;;;;;.                       ",
"                        .;;;;;;;;;;;;;;;.                       ",
"                        .;;;;;;;;;;;;;;;.                       ",
"                        .;;;;;;;;;;;;;;;.                       ",
"                        .;;;;;;;;;;;;;;;.                       ",
"                        .;;;;;;;;;;;;;;;.                       ",
"                        .;;;;;;;;;;;;;;;.                       ",
"                        .;;;;;;;;;;;;;;;.                       ",
"                        .;;;;;;;;;;;;;;;.                       ",
"                        .;;;;;;;;;;;;;;;.                       ",
"                        .;;;;;;;;;;;;;;;.                       ",
"                        .;;;;;;;;;;;;;;;.                       ",
"                        .;;;;;;;;;;;;;;;.                       ",
"                        .;;;;;;;;;;;;;;;.                       ",
"                        .;;;;;;;;;;;;;;;.                       ",
"                        .;;;;;;;;;;;;;;;.                       ",
"                        ..;;;;;;;;;;;;;..                       ",
"                         ..;;;;;;;;;;;..                        ",
"                          ..;;;;;;;;;..                         ",
"                           ...........                          ",
"                                                                ",
"                                                                ",
"                                                                ",
"                                                                ",
"                                                                "
};
