/* XPM */
static char *2_xpm[] = {
"64 64 3 1",
"  c #005080",
"X c black",
"c c white",
/* pixels */
"                                                                ",
"                                                                ",
"                    XXXXXXXXXXXXXXXXXXXXXXX                     ",
"                 XXXcccccccccccccccccccccccXXX                  ",
"               XXcccccccccccccccccccccccccccccXX                ",
"              XcccccccccccccccccccccccccccccccccX               ",
"             XcccccccccccccccccccccccccccccccccccX              ",
"            XcccccccccccccccccccccccccccccccccccccX             ",
"            XccccccccccccccccccccccccccccccccccccccX            ",
"            XccccccccccccccccccccccccccccccccccccccX            ",
"            XccccccccccccccccccccccccccccccccccccccX            ",
"            XccccccccccccXXXXXXXXXXXcccccccccccccccX            ",
"            XcccccccccccX           XccccccccccccccX            ",
"            XccccccccccX             XcccccccccccccX            ",
"             XcccccccXX               XccccccccccccX            ",
"             XXXXXXXX                 XccccccccccccX            ",
"                                       XcccccccccccX            ",
"                                       XcccccccccccX            ",
"                                       XcccccccccccX            ",
"                                      XccccccccccccX            ",
"                                      XccccccccccccX            ",
"                                     XccccccccccccX             ",
"                                    XcccccccccccccX             ",
"                                  XXcccccccccccccX              ",
"                                XXcccccccccccccccX              ",
"                               XccccccccccccccccX               ",
"                              XcccccccccccccccXX                ",
"                             XccccccccccccccXX                  ",
"                            XcccccccccccccXX                    ",
"                          XXccccccccccccXX                      ",
"                        XXcccccccccccccX                        ",
"                       XcccccccccccccXX                         ",
"                      XcccccccccccccX                           ",
"                     XcccccccccccccX                            ",
"                    XcccccccccccccX                             ",
"                   XcccccccccccccX                              ",
"                  XcccccccccccccX                               ",
"                 XcccccccccccccX                                ",
"                XcccccccccccccX                                 ",
"                XccccccccccccX                                  ",
"               XccccccccccccX                                   ",
"              XccccccccccccX                                    ",
"              XccccccccccccX                                    ",
"             XcccccccccccccX                                    ",
"             XcccccccccccccX                                    ",
"            XccccccccccccccX                                    ",
"            XcccccccccccccccX                                   ",
"            XccccccccccccccccXX                                 ",
"            XccccccccccccccccccXXXXXXXXXXXXXXXXXXX              ",
"            XccccccccccccccccccccccccccccccccccccX              ",
"            XcccccccccccccccccccccccccccccccccccccX             ",
"            XcccccccccccccccccccccccccccccccccccccX             ",
"            XcccccccccccccccccccccccccccccccccccccX             ",
"            XcccccccccccccccccccccccccccccccccccccX             ",
"            XcccccccccccccccccccccccccccccccccccccX             ",
"            XcccccccccccccccccccccccccccccccccccccX             ",
"            XcccccccccccccccccccccccccccccccccccccX             ",
"            XcccccccccccccccccccccccccccccccccccccX             ",
"             XcccccccccccccccccccccccccccccccccccX              ",
"              XXXXXXXXXXXXXXXXXXXXXXXXXXXXXXXXXXX               ",
"                                                                ",
"                                                                ",
"                                                                ",
"                                                                "
};
