/* XPM */
static char *_53feb33cf8d4b81f322ee6239f2d41b3SUZdErZn24yVW60[] = {
/* columns rows colors chars-per-pixel */
"64 64 3 1 ",
"  c #005080",
". c black",
"> c white",
/* pixels */
"                                                                ",
"                                                                ",
"                                                                ",
"                                                                ",
"                                                                ",
"                 ..............................                 ",
"                ..>>>>>>>>>>>>>>>>>>>>>>>>>>>>..                ",
"               ..>>>>>>>>>>>>>>>>>>>>>>>>>>>>>>..               ",
"              ..>>>>>>>>>>>>>>>>>>>>>>>>>>>>>>>>..              ",
"              .>>>>>>>>>>>>>>>>>>>>>>>>>>>>>>>>>>.              ",
"              ..>>>>>>>>>>>>>>>>>>>>>>>>>>>>>>>>>.              ",
"               ..>>>>>>>>>>>>>>>>>>>>>>>>>>>>>>>>.              ",
"                ..>>>>>>>>>>>>>>>>>>>>>>>>>>>>>>>.              ",
"                 ...............>>>>>>>>>>>>>>>>>.              ",
"                               ..>>>>>>>>>>>>>>>>.              ",
"                                ..>>>>>>>>>>>>>>>.              ",
"                                 .>>>>>>>>>>>>>>>.              ",
"                                 .>>>>>>>>>>>>>>>.              ",
"                                 .>>>>>>>>>>>>>>>.              ",
"                                 .>>>>>>>>>>>>>>>.              ",
"                                 .>>>>>>>>>>>>>>>.              ",
"                                 .>>>>>>>>>>>>>>>.              ",
"                                ..>>>>>>>>>>>>>>>.              ",
"                               ..>>>>>>>>>>>>>>>>.              ",
"                 ...............>>>>>>>>>>>>>>>>>.              ",
"                ..>>>>>>>>>>>>>>>>>>>>>>>>>>>>>>>.              ",
"               ..>>>>>>>>>>>>>>>>>>>>>>>>>>>>>>>>.              ",
"              ..>>>>>>>>>>>>>>>>>>>>>>>>>>>>>>>>>.              ",
"              .>>>>>>>>>>>>>>>>>>>>>>>>>>>>>>>>>>.              ",
"              .>>>>>>>>>>>>>>>>>>>>>>>>>>>>>>>>>>.              ",
"              ..>>>>>>>>>>>>>>>>>>>>>>>>>>>>>>>>>.              ",
"               ..>>>>>>>>>>>>>>>>>>>>>>>>>>>>>>>>.              ",
"                ..>>>>>>>>>>>>>>>>>>>>>>>>>>>>>>>.              ",
"                 ...............>>>>>>>>>>>>>>>>>.              ",
"                               ..>>>>>>>>>>>>>>>>.              ",
"                                ..>>>>>>>>>>>>>>>.              ",
"                                 .>>>>>>>>>>>>>>>.              ",
"                                 .>>>>>>>>>>>>>>>.              ",
"                                 .>>>>>>>>>>>>>>>.              ",
"                                 .>>>>>>>>>>>>>>>.              ",
"                                 .>>>>>>>>>>>>>>>.              ",
"                                ..>>>>>>>>>>>>>>>.              ",
"                               ..>>>>>>>>>>>>>>>>.              ",
"                 ...............>>>>>>>>>>>>>>>>>.              ",
"                ..>>>>>>>>>>>>>>>>>>>>>>>>>>>>>>>.              ",
"               ..>>>>>>>>>>>>>>>>>>>>>>>>>>>>>>>>.              ",
"              ..>>>>>>>>>>>>>>>>>>>>>>>>>>>>>>>>>.              ",
"              .>>>>>>>>>>>>>>>>>>>>>>>>>>>>>>>>>>.              ",
"              .>>>>>>>>>>>>>>>>>>>>>>>>>>>>>>>>>>.              ",
"              .>>>>>>>>>>>>>>>>>>>>>>>>>>>>>>>>>>.              ",
"              .>>>>>>>>>>>>>>>>>>>>>>>>>>>>>>>>>>.              ",
"              .>>>>>>>>>>>>>>>>>>>>>>>>>>>>>>>>>>.              ",
"              .>>>>>>>>>>>>>>>>>>>>>>>>>>>>>>>>>>.              ",
"              .>>>>>>>>>>>>>>>>>>>>>>>>>>>>>>>>>>.              ",
"              .>>>>>>>>>>>>>>>>>>>>>>>>>>>>>>>>>>.              ",
"              .>>>>>>>>>>>>>>>>>>>>>>>>>>>>>>>>>>.              ",
"              ..>>>>>>>>>>>>>>>>>>>>>>>>>>>>>>>>..              ",
"               ..>>>>>>>>>>>>>>>>>>>>>>>>>>>>>>..               ",
"                ..>>>>>>>>>>>>>>>>>>>>>>>>>>>>..                ",
"                 ..............................                 ",
"                                                                ",
"                                                                ",
"                                                                ",
"                                                                "
};
