/* XPM */
static char *_cad5d41dd9642b6b742c5f50a39ccc690bkaczviEHRGjwE[] = {
/* columns rows colors chars-per-pixel */
"64 64 3 1 ",
"  c #005080",
". c black",
"< c white",
/* pixels */
"                                                                ",
"                                                                ",
"                                                                ",
"                                                                ",
"               ........           ..............                ",
"              ..<<<<<<..         ..<<<<<<<<<<<<..               ",
"             ..<<<<<<<<..       ..<<<<<<<<<<<<<<..              ",
"             .<<<<<<<<<<.       .<<<<<<<<<<<<<<<<.              ",
"             .<<<<<<<<<<.       .<<<<<<<<<<<<<<<<.              ",
"             .<<<<<<<<<<.       .<<<<<<<<<<<<<<<<.              ",
"             .<<<<<<<<<<.       .<<<<<<<<<<<<<<<<.              ",
"             .<<<<<<<<<<.       .<<<<<<<<<<<<<<<<.              ",
"             .<<<<<<<<<<.       .<<<<<<<<<<<<<<<<.              ",
"             .<<<<<<<<<<.       .<<<<<<<<<<<<<<<<.              ",
"             .<<<<<<<<<<.       .<<<<<<<<<<<<<<<<.              ",
"             .<<<<<<<<<<.       .<<<<<<<<<<<<<<<<.              ",
"             .<<<<<<<<<<.       .<<<<<<<<<<<<<<<<.              ",
"             .<<<<<<<<<<.       .<<<<<<<<<<<<<<<<.              ",
"             .<<<<<<<<<<.       .<<<<<<<<<<<<<<<<.              ",
"             .<<<<<<<<<<.       .<<<<<<<<<<<<<<<<.              ",
"             .<<<<<<<<<<.       .<<<<<<<<<<<<<<<<.              ",
"             .<<<<<<<<<<.       .<<<<<<<<<<<<<<<<.              ",
"             .<<<<<<<<<<.       .<<<<<<<<<<<<<<<<.              ",
"             .<<<<<<<<<<.       .<<<<<<<<<<<<<<<<.              ",
"             .<<<<<<<<<<.       .<<<<<<<<<<<<<<<<.              ",
"             .<<<<<<<<<<.       .<<<<<<<<<<<<<<<<.              ",
"             .<<<<<<<<<<.       .<<<<<<<<<<<<<<<<.              ",
"             .<<<<<<<<<<.       .<<<<<<<<<<<<<<<<.              ",
"             .<<<<<<<<<<..     ..<<<<<<<<<<<<<<<<.              ",
"             .<<<<<<<<<<<.......<<<<<<<<<<<<<<<<<.              ",
"             .<<<<<<<<<<<<<<<<<<<<<<<<<<<<<<<<<<<.              ",
"             .<<<<<<<<<<<<<<<<<<<<<<<<<<<<<<<<<<<.              ",
"             .<<<<<<<<<<<<<<<<<<<<<<<<<<<<<<<<<<<.              ",
"             .<<<<<<<<<<<<<<<<<<<<<<<<<<<<<<<<<<<.              ",
"             .<<<<<<<<<<<<<<<<<<<<<<<<<<<<<<<<<<<.              ",
"             .<<<<<<<<<<<<<<<<<<<<<<<<<<<<<<<<<<<.              ",
"             .<<<<<<<<<<<<<<<<<<<<<<<<<<<<<<<<<<<.              ",
"             .<<<<<<<<<<<<<<<<<<<<<<<<<<<<<<<<<<<.              ",
"             ..<<<<<<<<<<<<<<<<<<<<<<<<<<<<<<<<<<.              ",
"              ..<<<<<<<<<<<<<<<<<<<<<<<<<<<<<<<<<.              ",
"               .................<<<<<<<<<<<<<<<<<.              ",
"                               ..<<<<<<<<<<<<<<<<.              ",
"                                .<<<<<<<<<<<<<<<<.              ",
"                                .<<<<<<<<<<<<<<<<.              ",
"                                .<<<<<<<<<<<<<<<<.              ",
"                                .<<<<<<<<<<<<<<<<.              ",
"                                .<<<<<<<<<<<<<<<<.              ",
"                                .<<<<<<<<<<<<<<<<.              ",
"                                .<<<<<<<<<<<<<<<<.              ",
"                                .<<<<<<<<<<<<<<<<.              ",
"                                .<<<<<<<<<<<<<<<<.              ",
"                                .<<<<<<<<<<<<<<<<.              ",
"                                .<<<<<<<<<<<<<<<<.              ",
"                                .<<<<<<<<<<<<<<<<.              ",
"                                .<<<<<<<<<<<<<<<<.              ",
"                                .<<<<<<<<<<<<<<<<.              ",
"                                .<<<<<<<<<<<<<<<<.              ",
"                                ..<<<<<<<<<<<<<<..              ",
"                                 ..<<<<<<<<<<<<..               ",
"                                  ..............                ",
"                                                                ",
"                                                                ",
"                                                                ",
"                                                                "
};
