/* XPM */
static char *bad2364406b44005ae97b514f03fcd82fGyDHnJ9YZRLdsTa[] = {
/* columns rows colors chars-per-pixel */
"64 64 3 1 ",
"  c #005080",
". c black",
"< c white",
/* pixels */
"                                                                ",
"                                                                ",
"                                                                ",
"                                                                ",
"               .................................                ",
"              ..<<<<<<<<<<<<<<<<<<<<<<<<<<<<<<<..               ",
"             ..<<<<<<<<<<<<<<<<<<<<<<<<<<<<<<<<<..              ",
"             .<<<<<<<<<<<<<<<<<<<<<<<<<<<<<<<<<<<.              ",
"             .<<<<<<<<<<<<<<<<<<<<<<<<<<<<<<<<<<<.              ",
"             .<<<<<<<<<<<<<<<<<<<<<<<<<<<<<<<<<<<.              ",
"             .<<<<<<<<<<<<<<<<<<<<<<<<<<<<<<<<<<<.              ",
"             .<<<<<<<<<<<<<<<<<<<<<<<<<<<<<<<<<<<.              ",
"             .<<<<<<<<<<<<<<<<<<<<<<<<<<<<<<<<<<..              ",
"             .<<<<<<<<<<<<<<<<<<<<<<<<<<<<<<<<<..               ",
"             .<<<<<<<<<<<.......................                ",
"             .<<<<<<<<<<.                                       ",
"             .<<<<<<<<<<.                                       ",
"             .<<<<<<<<<<<.......................                ",
"             .<<<<<<<<<<<<<<<<<<<<<<<<<<<<<<<<<..               ",
"             .<<<<<<<<<<<<<<<<<<<<<<<<<<<<<<<<<<..              ",
"             .<<<<<<<<<<<<<<<<<<<<<<<<<<<<<<<<<<<.              ",
"             .<<<<<<<<<<<<<<<<<<<<<<<<<<<<<<<<<<<.              ",
"             .<<<<<<<<<<<<<<<<<<<<<<<<<<<<<<<<<<<.              ",
"             .<<<<<<<<<<<<<<<<<<<<<<<<<<<<<<<<<<<.              ",
"             .<<<<<<<<<<<<<<<<<<<<<<<<<<<<<<<<<<<.              ",
"             ..<<<<<<<<<<<<<<<<<<<<<<<<<<<<<<<<<<.              ",
"              ..<<<<<<<<<<<<<<<<<<<<<<<<<<<<<<<<<.              ",
"               .................<<<<<<<<<<<<<<<<<.              ",
"                               ..<<<<<<<<<<<<<<<<.              ",
"                                ..<<<<<<<<<<<<<<<.              ",
"                                 .<<<<<<<<<<<<<<<.              ",
"                                 .<<<<<<<<<<<<<<<.              ",
"                                 .<<<<<<<<<<<<<<<.              ",
"                                 .<<<<<<<<<<<<<<<.              ",
"                                 .<<<<<<<<<<<<<<<.              ",
"                                 .<<<<<<<<<<<<<<<.              ",
"                                 .<<<<<<<<<<<<<<<.              ",
"                                 .<<<<<<<<<<<<<<<.              ",
"                                 .<<<<<<<<<<<<<<<.              ",
"                                 .<<<<<<<<<<<<<<<.              ",
"                                 .<<<<<<<<<<<<<<<.              ",
"                                ..<<<<<<<<<<<<<<<.              ",
"                               ..<<<<<<<<<<<<<<<<.              ",
"                ................<<<<<<<<<<<<<<<<<.              ",
"               ..<<<<<<<<<<<<<<<<<<<<<<<<<<<<<<<<.              ",
"              ..<<<<<<<<<<<<<<<<<<<<<<<<<<<<<<<<<.              ",
"             ..<<<<<<<<<<<<<<<<<<<<<<<<<<<<<<<<<<.              ",
"             .<<<<<<<<<<<<<<<<<<<<<<<<<<<<<<<<<<<.              ",
"             .<<<<<<<<<<<<<<<<<<<<<<<<<<<<<<<<<<<.              ",
"             .<<<<<<<<<<<<<<<<<<<<<<<<<<<<<<<<<<<.              ",
"             .<<<<<<<<<<<<<<<<<<<<<<<<<<<<<<<<<<<.              ",
"             .<<<<<<<<<<<<<<<<<<<<<<<<<<<<<<<<<<<.              ",
"             .<<<<<<<<<<<<<<<<<<<<<<<<<<<<<<<<<<<.              ",
"             .<<<<<<<<<<<<<<<<<<<<<<<<<<<<<<<<<<<.              ",
"             .<<<<<<<<<<<<<<<<<<<<<<<<<<<<<<<<<<<.              ",
"             .<<<<<<<<<<<<<<<<<<<<<<<<<<<<<<<<<<<.              ",
"             ..<<<<<<<<<<<<<<<<<<<<<<<<<<<<<<<<<<.              ",
"              ..<<<<<<<<<<<<<<<<<<<<<<<<<<<<<<<<..              ",
"               ..<<<<<<<<<<<<<<<<<<<<<<<<<<<<<<..               ",
"                ................................                ",
"                                                                ",
"                                                                ",
"                                                                ",
"                                                                "
};
