/* XPM */
static char *_9cea784f1bf48abf44e2d411b51c481VpPrUrHNmWtvWAOu[] = {
/* columns rows colors chars-per-pixel */
"64 64 3 1 ",
"  c #005080",
". c black",
"5 c white",
/* pixels */
"                                                                ",
"                                                                ",
"                                                                ",
"                                                                ",
"                 ..............................                 ",
"                ..5555555555555555555555555555..                ",
"               ..555555555555555555555555555555..               ",
"              ..55555555555555555555555555555555..              ",
"             ..5555555555555555555555555555555555.              ",
"             .55555555555555555555555555555555555.              ",
"             .55555555555555555555555555555555555.              ",
"             .5555555555555555555555555555555555..              ",
"             .555555555555555555555555555555555..               ",
"             .55555555555555555555555555555555..                ",
"             .5555555555555555.................                 ",
"             .5555555555555555.                                 ",
"             .5555555555555555.                                 ",
"             .5555555555555555.................                 ",
"             .55555555555555555555555555555555..                ",
"             .555555555555555555555555555555555..               ",
"             .5555555555555555555555555555555555..              ",
"             .55555555555555555555555555555555555.              ",
"             .55555555555555555555555555555555555.              ",
"             .55555555555555555555555555555555555.              ",
"             .55555555555555555555555555555555555.              ",
"             .55555555555555555555555555555555555.              ",
"             .5555555555555555.........5555555555.              ",
"             .555555555555555..       ..555555555.              ",
"             .555555555555555.         .555555555.              ",
"             .555555555555555.         .555555555.              ",
"             .555555555555555.         .555555555.              ",
"             .555555555555555.         .555555555.              ",
"             .555555555555555.         .555555555.              ",
"             .555555555555555.         .555555555.              ",
"             .555555555555555.         .555555555.              ",
"             .555555555555555.         .555555555.              ",
"             .555555555555555.         .555555555.              ",
"             .555555555555555.         .555555555.              ",
"             .555555555555555.         .555555555.              ",
"             .555555555555555.         .555555555.              ",
"             .555555555555555.         .555555555.              ",
"             .555555555555555.         .555555555.              ",
"             .555555555555555..       ..555555555.              ",
"             .5555555555555555.........5555555555.              ",
"             .55555555555555555555555555555555555.              ",
"             .55555555555555555555555555555555555.              ",
"             .55555555555555555555555555555555555.              ",
"             .55555555555555555555555555555555555.              ",
"             .55555555555555555555555555555555555.              ",
"             .55555555555555555555555555555555555.              ",
"             .55555555555555555555555555555555555.              ",
"             .55555555555555555555555555555555555.              ",
"             .55555555555555555555555555555555555.              ",
"             .55555555555555555555555555555555555.              ",
"             .55555555555555555555555555555555555.              ",
"             ..5555555555555555555555555555555555.              ",
"              ..55555555555555555555555555555555..              ",
"               ..555555555555555555555555555555..               ",
"                ..5555555555555555555555555555..                ",
"                 ..............................                 ",
"                                                                ",
"                                                                ",
"                                                                ",
"                                                                "
};
