/* XPM */
static char *_205a07b5a5041bfb95bfe8a1003ca2bv7o5bnymVXMpgZDi[] = {
/* columns rows colors chars-per-pixel */
"64 64 3 1 ",
"  c #005080",
". c black",
"1 c white",
/* pixels */
"                                                                ",
"                                                                ",
"                                                                ",
"                                                                ",
"                 ...............................                ",
"                ..11111111111111111111111111111..               ",
"               ..1111111111111111111111111111111..              ",
"              ..111111111111111111111111111111111..             ",
"              .11111111111111111111111111111111111.             ",
"              .11111111111111111111111111111111111.             ",
"              .11111111111111111111111111111111111.             ",
"              ..1111111111111111111111111111111111.             ",
"               ..111111111111111111111111111111111.             ",
"                ..11111111111111111111111111111111.             ",
"                 ................11111111111111111.             ",
"                                ..1111111111111111.             ",
"                                 .1111111111111111.             ",
"                                 .1111111111111111.             ",
"                                 .1111111111111111.             ",
"                                 .1111111111111111.             ",
"                                 .1111111111111111.             ",
"                                 .1111111111111111.             ",
"                                 .1111111111111111.             ",
"                                 .1111111111111111.             ",
"                                 .1111111111111111.             ",
"                                 .1111111111111111.             ",
"                                 .1111111111111111.             ",
"                                 .1111111111111111.             ",
"                                 .1111111111111111.             ",
"                                 .1111111111111111.             ",
"                                 .1111111111111111.             ",
"                                 .1111111111111111.             ",
"                                 .1111111111111111.             ",
"                                 .1111111111111111.             ",
"                                ..1111111111111111.             ",
"                               ..1111111111111111..             ",
"                              ..1111111111111111..              ",
"                             ..1111111111111111..               ",
"                            ..1111111111111111..                ",
"                           ..1111111111111111..                 ",
"                           .1111111111111111..                  ",
"                           .111111111111111..                   ",
"                           .111111111111111.                    ",
"                           .111111111111111.                    ",
"                           .111111111111111.                    ",
"                           .111111111111111.                    ",
"                           .111111111111111.                    ",
"                           .111111111111111.                    ",
"                           .111111111111111.                    ",
"                           .111111111111111.                    ",
"                           .111111111111111.                    ",
"                           .111111111111111.                    ",
"                           .111111111111111.                    ",
"                           .111111111111111.                    ",
"                           .111111111111111.                    ",
"                           .111111111111111.                    ",
"                           ..1111111111111..                    ",
"                            ..11111111111..                     ",
"                             ..111111111..                      ",
"                              ...........                       ",
"                                                                ",
"                                                                ",
"                                                                ",
"                                                                "
};
