/* XPM */
static char *fe1a54e935b04f82ba900d6c90e7c8fbmOPbm8Nya06aikZF[] = {
/* columns rows colors chars-per-pixel */
"64 64 3 1 ",
"  c #005080",
". c black",
"q c white",
/* pixels */
"                                                                ",
"                                                                ",
"                                                                ",
"                                                                ",
"                .................................               ",
"               ..qqqqqqqqqqqqqqqqqqqqqqqqqqqqqqq..              ",
"              ..qqqqqqqqqqqqqqqqqqqqqqqqqqqqqqqqq..             ",
"              .qqqqqqqqqqqqqqqqqqqqqqqqqqqqqqqqqqq.             ",
"              .qqqqqqqqqqqqqqqqqqqqqqqqqqqqqqqqqqq.             ",
"              .qqqqqqqqqqqqqqqqqqqqqqqqqqqqqqqqqqq.             ",
"              .qqqqqqqqqqqqqqqqqqqqqqqqqqqqqqqqqqq.             ",
"              .qqqqqqqqqqqqqqqqqqqqqqqqqqqqqqqqqqq.             ",
"              .qqqqqqqqqqqqqqqqqqqqqqqqqqqqqqqqqqq.             ",
"              .qqqqqqqqqqqqqqqqqqqqqqqqqqqqqqqqqqq.             ",
"              .qqqqqqqqqqq......qqqqqqqqqqqqqqqqqq.             ",
"              .qqqqqqqqqq.      .qqqqqqqqqqqqqqqqq.             ",
"              .qqqqqqqqq.        .qqqqqqqqqqqqqqqq.             ",
"              .qqqqqqqqq.        .qqqqqqqqqqqqqqqq.             ",
"              .qqqqqqqqq.        .qqqqqqqqqqqqqqqq.             ",
"              .qqqqqqqqq.        .qqqqqqqqqqqqqqqq.             ",
"              .qqqqqqqqq.        .qqqqqqqqqqqqqqqq.             ",
"              .qqqqqqqqq.        .qqqqqqqqqqqqqqqq.             ",
"              .qqqqqqqqqq.      .qqqqqqqqqqqqqqqqq.             ",
"              .qqqqqqqqqqq......qqqqqqqqqqqqqqqqqq.             ",
"              .qqqqqqqqqqqqqqqqqqqqqqqqqqqqqqqqqqq.             ",
"              .qqqqqqqqqqqqqqqqqqqqqqqqqqqqqqqqqqq.             ",
"              .qqqqqqqqqqqqqqqqqqqqqqqqqqqqqqqqqqq.             ",
"              .qqqqqqqqqqqqqqqqqqqqqqqqqqqqqqqqqqq.             ",
"              .qqqqqqqqqqqqqqqqqqqqqqqqqqqqqqqqqqq.             ",
"              .qqqqqqqqqqqqqqqqqqqqqqqqqqqqqqqqqqq.             ",
"              .qqqqqqqqqqqqqqqqqqqqqqqqqqqqqqqqqqq.             ",
"              .qqqqqqqqqqqqqqqqqqqqqqqqqqqqqqqqqqq.             ",
"              .qqqqqqqqqqqqqqqqqqqqqqqqqqqqqqqqqqq.             ",
"              .qqqqqqqqqqq.......qqqqqqqqqqqqqqqqq.             ",
"              .qqqqqqqqqq.       .qqqqqqqqqqqqqqqq.             ",
"              .qqqqqqqqq.         .qqqqqqqqqqqqqqq.             ",
"              .qqqqqqqqq.         .qqqqqqqqqqqqqqq.             ",
"              .qqqqqqqqq.         .qqqqqqqqqqqqqqq.             ",
"              .qqqqqqqqq.         .qqqqqqqqqqqqqqq.             ",
"              .qqqqqqqqq.         .qqqqqqqqqqqqqqq.             ",
"              .qqqqqqqqq.         .qqqqqqqqqqqqqqq.             ",
"              .qqqqqqqqq.         .qqqqqqqqqqqqqqq.             ",
"              .qqqqqqqqq.         .qqqqqqqqqqqqqqq.             ",
"              .qqqqqqqqq.         .qqqqqqqqqqqqqqq.             ",
"              .qqqqqqqqq.         .qqqqqqqqqqqqqqq.             ",
"              .qqqqqqqqq.         .qqqqqqqqqqqqqqq.             ",
"              .qqqqqqqqq.         .qqqqqqqqqqqqqqq.             ",
"              .qqqqqqqqq.         .qqqqqqqqqqqqqqq.             ",
"              .qqqqqqqqqq.       .qqqqqqqqqqqqqqqq.             ",
"              .qqqqqqqqqqq.......qqqqqqqqqqqqqqqqq.             ",
"              .qqqqqqqqqqqqqqqqqqqqqqqqqqqqqqqqqqq.             ",
"              .qqqqqqqqqqqqqqqqqqqqqqqqqqqqqqqqqqq.             ",
"              .qqqqqqqqqqqqqqqqqqqqqqqqqqqqqqqqqqq.             ",
"              .qqqqqqqqqqqqqqqqqqqqqqqqqqqqqqqqqqq.             ",
"              .qqqqqqqqqqqqqqqqqqqqqqqqqqqqqqqqqqq.             ",
"              .qqqqqqqqqqqqqqqqqqqqqqqqqqqqqqqqqqq.             ",
"              .qqqqqqqqqqqqqqqqqqqqqqqqqqqqqqqqqqq.             ",
"              ..qqqqqqqqqqqqqqqqqqqqqqqqqqqqqqqqq..             ",
"               ..qqqqqqqqqqqqqqqqqqqqqqqqqqqqqqq..              ",
"                .................................               ",
"                                                                ",
"                                                                ",
"                                                                ",
"                                                                "
};
