/* XPM */
static char *dda53a0f7eea48518c8670cfd2fc66ecp5MY9IjDTiDrqm5q[] = {
/* columns rows colors chars-per-pixel */
"64 64 3 1 ",
"  c #005080",
". c black",
"0 c white",
/* pixels */
"                                                                ",
"                                                                ",
"                                                                ",
"                        ..................                      ",
"                     ....0000000000000000...                    ",
"                   ...000000000000000000000...                  ",
"                  ..0000000000000000000000000..                 ",
"                 ..000000000000000000000000000..                ",
"                ..00000000000000000000000000000.                ",
"                .000000000000000000000000000000..               ",
"               ..0000000000000000000000000000000.               ",
"               .00000000000000000000000000000000.               ",
"              ..00000000000000000000000000000000..              ",
"              .0000000000000000000000000000000000.              ",
"              .000000000000.......000000000000000.              ",
"              .00000000000..     ..00000000000000.              ",
"              .0000000000..       ..0000000000000.              ",
"              .000000000..         ..000000000000.              ",
"              .000000000.           .000000000000.              ",
"              .000000000.           .000000000000.              ",
"              .000000000.           .000000000000.              ",
"              .000000000.           .000000000000.              ",
"              .000000000.           .000000000000.              ",
"              .000000000..         ..000000000000.              ",
"              .0000000000..       ..0000000000000.              ",
"              .00000000000..     ..00000000000000.              ",
"              .000000000000.......000000000000000.              ",
"              .0000000000000000000000000000000000.              ",
"              ..000000000000000000000000000000000.              ",
"               .000000000000000000000000000000000.              ",
"               ..00000000000000000000000000000000.              ",
"                .00000000000000000000000000000000.              ",
"                ...000000000000000000000000000000.              ",
"                  ...0000000000000000000000000000.              ",
"                    ..............000000000000000.              ",
"                                 ..00000000000000.              ",
"                                  .0000000000000..              ",
"                                  ..000000000000.               ",
"                                   .000000000000.               ",
"                                   .000000000000.               ",
"                                   .000000000000.               ",
"                                  ..000000000000.               ",
"                                  .0000000000000.               ",
"                                 ..000000000000..               ",
"               .......           .0000000000000.                ",
"               .00000.          ..0000000000000.                ",
"              ..000000...     ...0000000000000..                ",
"              .0000000000......000000000000000.                 ",
"              .000000000000000000000000000000..                 ",
"              .000000000000000000000000000000.                  ",
"              .00000000000000000000000000000..                  ",
"              .00000000000000000000000000000.                   ",
"              .0000000000000000000000000000..                   ",
"              ..00000000000000000000000000..                    ",
"               ..000000000000000000000000..                     ",
"                ..000000000000000000000...                      ",
"                 ..000000000000000000...                        ",
"                  ....................                          ",
"                                                                ",
"                                                                ",
"                                                                ",
"                                                                ",
"                                                                ",
"                                                                "
};
