/* XPM */
static char *_bbd0838124a4f9da685f67d2ac6b255lpAjj6eNweszdIxP[] = {
/* columns rows colors chars-per-pixel */
"64 64 8 1 ",
"  c black",
". c #040A43",
"X c #374550",
"o c #E22C16",
"O c #825115",
"+ c #8C762E",
"@ c #CEBE85",
"# c #F1CD8A",
/* pixels */
"OOOOOOO       OOOOOOOOOOO       OOOOOOOOO        OOOOOOOOOOO    ",
" OOO   XXXXXXX   OOOOOO  +++++++  OOOOO  ++++++++  OOOOOOO  ++++",
"+ O XXXXXXXXXXXXX  OO  +++++++++++  OO ++++++++++++ OOOOO ++++++",
"++ XXXXoooXXXXXXXXX  +++++++++++++++  ++++++++++++++ OOO +++++++",
"++  XXooooXXXXXXXXX  +++++++++++++++ ++++++++++++++++ O ++++++++",
"+++ XXooo#XXXXXXXXX ++++++++++++++++  +++++++++++++++   ++++++++",
"+++ XXoo##XXXXXXXXX ++++++++++++++++  +++++++++++++++ X ++++++++",
"+++ XXX####XXXXXXXX ++++++            ++++++++++++++ XX ++++++++",
"+++ XXXX####XXXXXXX +++    ..........    ++++++++++ XXX ++++++++",
"++ XXXXXX####XX           ............     ++++++  XXXXX +++++++",
"++  XXXXX#####         ..................        XXXXXXXX ++++++",
"  X    XXX###        ......................   XXXXXXXXXXXX   +++",
" XXX OO    #       ..........................   XXXXXXXXXXXX    ",
" XXX OOOOOO       ............................    XXXXXXXXXXX OO",
" XXX OOOOO     ..................................  XXXXXXXXXX OO",
" XXX OO       .................................... XXXXXXXXXX OO",
" XXX   +++    ....................................  XXXXXXXXX OO",
"  X  +++++    ....................................  XXXXXXXX OOO",
"O X  +++++   ......................................  XXXXXXX OOO",
"O  O +++++  ........................................  XXXXX OOOO",
"OOOO +++++ .......................................... XXXXX OOOO",
"O      ++  ..........................................  XX  OOOOO",
"O XXXX     ..........................................  X O     O",
" XXXXXXX  ............................................    XXXXX ",
"X XXXXXX  ............................................  XXXXXXXX",
"XX XXXXX  ............................................  XXXXXXXX",
"XX XXXX  ..............................................  XXXXXXX",
"X XXXXX ................................................ XXXXXXX",
" XXXX   ................................................ XX     ",
"+     + ................................................ X +++++",
"++ OO + ................................................  ++++++",
"+++ OO  ................................................ +++++++",
"++++    ................................................ +++++++",
"++++ X  ................................................ +++++++",
"++++ XX ................................................ +++++++",
"+++ XXX ................................................ +++++++",
"++ XXXX ................................................  ++++++",
"+ XXXXX  ..............................................  O +++++",
" XXXXX    ............................................   OO     ",
"X      X  ............................................     XXXXX",
"XXX O XX  ............................................   XXXXXXX",
"XXXX XXXX  ..........................................   XXXXXXXX",
"XXXX XXXX  ..........................................   XXXXXXXX",
"XXXX XXXXX .......................................... O XXXXXXXX",
"XXXX   XXX  ........................................  O XXXXXXXX",
"XXX @@ XXXX  ......................................  OO   XXXXXX",
"X  @@@@ XXXX  ....................................  O  ++  XXXXX",
" + @@@@ XXXX  ....................................   ++++++     ",
"++ @@@@ XXXXX ....................................  ++++++++++++",
"++ @@@ O  XXX  ..................................   ++++++++++++",
"++          XX    ............................    O ++++++++++++",
"++   +++++         ..........................   X    +++++++++++",
"+ ++++++++ +++++++   ......................   XXXXXX   +++++++++",
"+ ++++++++ ++++++++    ..................    XXXXXXXX   ++++++++",
" +++++++++ ++++++++++     ............     XXXXXXXXXXXX   ++++++",
" +++++++++ ++++++++++ O    ..........    XXXXXXXXXXXXXXXX       ",
"     +++++ ++++++++++ OOO             XXXXXXXXXXXXXXXXXXXX OOOOO",
"OOO        +++++++++   OOOO       XXXXXXXXXXXXXXXXXXXXXXXX OOOOO",
"OO @@@  +++ ++++++++ ++ OOO XXXXXXXXXXXXXXXXXXXXXXXXXXXXXX    OO",
"OO @@@  +++ ++++++++ +++ OOO XXXXXXXXXXXXXXXXXXXXXXXXXXXX @@@ OO",
"OO @@@  ++++  ++++  ++++ OOO  XXXXXXXXXXXXXXXXXXXXXXXXXX  @@@ OO",
"OO @@@  ++++++    ++++++ OOOOO XXXXXXXXXXXXXXXXXXXXXXXX O  @@  O",
"OO  @@  +++++++++++++++ OOOOOOO  XXXXXXXXXXXXXXXXXXXX  OOO @@@ O",
"OOOO  OO   +++++++++   OOOOOOOOOO    XXXXXXXXXXXX    OOOOO     O"
};
