/* XPM */
static char *_76bdca31db748d490d1263c1b266c70Vt5yny4jZhDXqyP6[] = {
/* columns rows colors chars-per-pixel */
"64 64 6 1 ",
"  c black",
". c #005080",
"O c #E675D1",
"@ c #EB8EDA",
"# c #F0F8D0",
"$ c white",
/* pixels */
"................................................................",
"................................................................",
"................................................................",
"................................................................",
"................................................................",
"................................................................",
"................................................................",
"................................................................",
"............... ................................ ...............",
"............... ................................ ...............",
".............. # .............................. # ..............",
".............. # .............................. # ..............",
"............. ## .............................. ## .............",
"............. #@# ............................ #@# .............",
"............. #@# ............................ #@# .............",
"............ #@@# .......              ....... #@@# ............",
"............ #@@#   .    ##############    ... #@@# ............",
"............ #@@#    ######################    #@@# ............",
"........... #@@@  ############################  @@@# ...........",
"........... #@  ################################  @# ...........",
"...........   ####################################   ...........",
"........... ######################################## ...........",
".......... ########################################## ..........",
"......... #############   #############   ############ .........",
"........ #############    ############    ############# ........",
"....... ##############    ############    ############## .......",
"...... ###############   $############   $############### ......",
"...... ###############   $############   $############### ......",
"..... #################   #############   ################ .....",
"..... #################################################### .....",
".... ###################################################### ....",
".... #####  ########################################  ##### ....",
".... #######  ####################################  ####### ....",
".... #########  ################################  ######### ....",
".... ###########  ############################  ########### ....",
".... ###################################################### ....",
".... ####         ############################         #### ....",
"..... #################################################### .....",
"..... ##########  ########### OOOO ###########  ########## .....",
".....  #######  ############## OO ##############  #######  .....",
"...... #####  #################  #################  ##### ......",
"....... ##  ###################  ###################  ## .......",
"........ ######### ############  ############ ######### ........",
"......... ######## ############  ############ ########  ........",
".......... ######## ########## ## ########## ######## ..........",
"........... ######## ######## #### ######## ######## ...........",
"............  #######        ######        #######  ............",
"..............  ################################  ..............",
"................  ############################  ................",
"..................   ######################   ..................",
".....................    ##############    .....................",
".........................              .........................",
"................................................................",
"................................................................",
"................................................................",
"................................................................",
"................................................................",
"................................................................",
"................................................................",
"................................................................",
"................................................................",
"................................................................",
"................................................................",
"................................................................"
};
