/* XPM */
static char *_76bdca31db748d490d1263c1b266c70Vt5yny4jZhDXqyP6[] = {
/* columns rows colors chars-per-pixel */
"64 64 9 1 ",
"  c #010000",
". c #374550",
"X c #825115",
"o c #8C762E",
"O c #E675D1",
"+ c #CFBE85",
"@ c #EB8EDA",
"# c #F0F8D0",
"$ c white",
/* pixels */
"XXXXXXX       XXXXXXXXXXX       XXXXXXXXX        XXXXXXXXXXX    ",
" XXX   .......   XXXXXX  ooooooo  XXXXX  oooooooo  XXXXXXX  oooo",
"o X .............  XX  ooooooooooo  XX oooooooooooo XXXXX oooooo",
"oo ................  ooooooooooooooo  oooooooooooooo XXX ooooooo",
"oo  ...............  ooooooooooooooo oooooooooooooooo X oooooooo",
"ooo ............... oooooooooooooooo  ooooooooooooooo   oooooooo",
"ooo ............... oooooooooooooooo  ooooooooooooooo . oooooooo",
"ooo ............... ooooooooooooooooo oooooooooooooo .. oooooooo",
"ooo ........... ... ooooooooooooooooo   oooooooo oo ... oooooooo",
"oo ............ ...  ooooooooooooooo XX  ooooooo   ..... ooooooo",
"oo  .......... #   + ooooooooooooooo X ..       # ....... oooooo",
"  .    ....... # ++++  ooooooooooo  XX ........ # ........   ooo",
" ... XX       ## ++++ X  ooooooo  XXX ......... ## .........    ",
" ... XXXXXXXX #@# +++ XX        XXXXX ........ #@# .......... XX",
" ... XXXXXXXX #@# ++    .......   XXX ........ #@# .......... XX",
" ... XX      #@@# +  ....              ....... #@@# ......... XX",
" ...   ooooo #@@#   .    ##############    ... #@@# ......... XX",
"  .  ooooooo #@@#    ######################    #@@# ........ XXX",
"X .  oooooo #@@@  ############################  @@@# ....... XXX",
"X  X oooooo #@  ################################  @# ...... XXXX",
"XXXX oooooo   ####################################   ...... XXXX",
"X      oooo ######################################## ....  XXXXX",
"X ....     ########################################## .. X     X",
" ........ #############   #############   ############    ..... ",
". ...... #############    ############    ############# ........",
".. .... ##############    ############    ############## .......",
".. ... ###############   $############   $############### ......",
". .... ###############   $############   $############### ......",
" .... #################   #############   ################      ",
"o     #################################################### ooooo",
"oo X ###################################################### oooo",
"ooo  #####  ########################################  ##### oooo",
"oooo #######  ####################################  ####### oooo",
"oooo #########  ################################  ######### oooo",
"oooo ###########  ############################  ########### oooo",
"ooo  ###################################################### oooo",
"oo . ####         ############################         #### oooo",
"o ... #################################################### ooooo",
" .... ##########  ########### OOOO ###########  ##########      ",
".      #######  ############## OO ##############  #######  .....",
"... X  #####  #################  #################  ##### ......",
".... .. ##  ###################  ###################  ## .......",
".... ... ######### ############  ############ ######### ........",
".... .... ######## ############  ############ ########  ........",
"....   ... ######## ########## ## ########## ######## X ........",
"... ++ .... ######## ######## #### ######## ######## XX   ......",
".  ++++ ....  #######        ######        #######  X  oo  .....",
" o ++++ ......  ################################  XX oooooo     ",
"oo ++++ ........  ############################  XXX oooooooooooo",
"oo +++ X  ........   ######################   XXXXX oooooooooooo",
"oo          .........    ##############          XX oooooooooooo",
"oo   ooooo             oo              ..........    ooooooooooo",
"o oooooooo oooooooooo  ooooooooooooooo .............   ooooooooo",
"o oooooooo oooooooooo  ooooooooooooooo ..............   oooooooo",
" ooooooooo oooooooooo X ooooooooooooo .................   oooooo",
" ooooooooo oooooooooo XX ooooooooooo ....................       ",
"     ooooo oooooooooo XXX   oooooo  ...................... XXXXX",
"XXX        ooooooooo   XXXX       ........................ XXXXX",
"XX +++  ooo oooooooo oo XXX ..............................    XX",
"XX +++  ooo oooooooo ooo XXX ............................ +++ XX",
"XX +++  oooo  oooo  oooo XXX  ..........................  +++ XX",
"XX +++  oooooo    oooooo XXXXX ........................ X  ++  X",
"XX  ++  ooooooooooooooo XXXXXXX  ....................  XXX +++ X",
"XXXX  XX   ooooooooo   XXXXXXXXXX    ............    XXXXX     X"
};
