/* XPM */
static char *_7217109d5494ae391a54124a30521ecKRC4BsH63mz7zCZg[] = {
/* columns rows colors chars-per-pixel */
"64 64 19 1 ",
"  c black",
". c #75410B",
"X c #374550",
"o c #514C4B",
"O c #615A59",
"+ c #696160",
"@ c #716867",
"# c #716768",
"$ c #706868",
"% c #786F6F",
"& c #83490B",
"* c #924F0A",
"= c #825115",
"- c #A0570B",
"; c #AE5F0B",
": c #AE5F0C",
"> c #8C772E",
", c #8F8686",
"< c #CEBE85",
/* pixels */
"=======       ===========             ===        ===========    ",
" ===   XXXXXXX   ======   %%%%%%%%%%%%   >>>>>>>>  =======  >>>>",
"> = XXXXXXXXXXXXX  =   %% $@        ++ %%   >>>>>>> ===== >>>>>>",
">> XXXXXXXXXXXXXXXX %%%$$   ,,,,,,,,   @$%%% >>>>>>> === >>>>>>>",
">>  XXXXXXXXXXXXX   @$$  ,,,,,,,,,,,,,,  $$@   >>>>>> = >>>>>>>>",
">>> XXXXXXXXXXXX %%    ,,,            ,,,    %% >>>>>   >>>>>>>>",
">>> XXXXXXXXXX  %%$  ,,,  ----*  -----  ,,,  $%%  >>> X >>>>>>>>",
">>> XXXXXXXXX %%%$ ,,,  ------*  -------  ,,, +%%% > XX >>>>>>>>",
">>> XXXXXXXX  %%$ ,,  --------*  ---------  ,, $$%  XXX >>>>>>>>",
">> XXXXXXXX %    ,, ----------*  ----------- ,,    % XXX >>>>>>>",
">>  XXXXXXX %%% ,, -----------*  ------------ ,, $%% XXXX >>>>>>",
"  X    XXX %%%$ ,, -----------*  ------------ ,, $%%% XXXX   >>>",
" XXX ==   %%%$ ,, ----.-------*  --------.*--- ,, $%%% XXXXX    ",
" XXX ====  %$ ,, -----.-------*  --------.*---- ,, +%  XXXXXX ==",
" XXX === %   ,, ------.-------*  --------.*----- ,,   % XXXXX ==",
" XXX ==  %%$ ,, ------.-------*  --------.*----- ,, $%% XXXXX ==",
" XXX    %%$ ,, -------..------*  -------..-----:- ,, $%% XXXX ==",
"  X  >> %%$ ,, --------.---.--*  ---.---.------:- ,, $%% XXX ===",
"= X  >> %%$ ,, ------------.--*  ---.----------;- ,, $%% XXX ===",
"=  = >> %%$ ,, ----*------&.--*  ---..----------- ,, $%% XX ====",
"==== >     ,, -----*------.*--*  ----.------------ ,,     X ====",
"=      +++ ,, -----*-------.--*  ---.------------- ,, +++  =====",
"= XXXX +++ ,, -------------.--*  ---.------------- ,, +++      =",
" XXXXX +++ ,, -------------.--*  ---.----*-------- ,, +++ XXXXX ",
"X XXXX +++ ,, ----.*-------.--*  ---.----*---.---- ,, +++ XXXXXX",
"XX XXX +++ ,, ----.*-------.--*  ---.----*---.---- ,, +++ XXXXXX",
"XX XXX +++ ,, ----.*-------..-*  --..--------.---- ,, +++ XXXXXX",
"X XXXX +++ ,, ----.*----------*  ------------.---- ,, +++ XXXXXX",
" XXXX  +++ ,, ----.---   -----*  ------   ---.---- ,, +++ X     ",
">     >     , ---..-- *-- ----*  ----- *-- --..--- ,     X >>>>>",
">> == > #$$ , --..-- *---- :--*  :--- *---- :-..-- , +#%  >>>>>>",
">>> ==  $%% , --.--- *---- ;--*  ::-- *---- :--.-- , $%% >>>>>>>",
">>>>    %%% , --.--- *---- :--*  ::-- *---- ;--.-- , $%% >>>>>>>",
">>>> X  %%% , ------ *---- :--*  :--- *---- :----- , %%% >>>>>>>",
">>>> XX %%% , ------- --- :---*  ----- --- :------ , %%% >>>>>>>",
">>> XXX %%% , --.-----   :----*  ------   :----.-- , %%% >>>>>>>",
">> XXXX %%% , --..------------*  -------------..-- , %%%  >>>>>>",
"> XXXX     ,, ---.------------*  -------------.--- ,,      >>>>>",
" XXXXX +++ ,, ---..-------.---*  ----.*------..--- ,, +++ =     ",
"X      +++ ,, ----.-------.---*  ----.*------.---- ,, +++  XXXXX",
"XXX =  +++ ,, ---..------..---*  ----..*-----..--- ,, +++ XXXXXX",
"XXXX X +++ ,, ----.------.----*  -----.*-----.---- ,, +++ XXXXXX",
"XXXX X +++ ,, ----.------.----*  -----.*-----.---- ,, +++ XXXXXX",
"XXXX X +++ ,, ----.------.----*  -----.*-----.---- ,, +++ XXXXXX",
"XXXX   +++ ,, -----------.----*  -----.*---------- ,, +++ XXXXXX",
"XXX <<      , ---.-------.----*  -----.*------.--- ,      XXXXXX",
"X  <<<< $$% , ---.--------.---*  ----.--------.--- , O$%   XXXXX",
" > <<<< $%% , ---.--------.---*  ----.--------.--- , $%% >>     ",
">> <<<< %%% , ---.--*---------*  -------------.--- , %%% >>>>>>>",
">> <<<  %%% , ---.--*---------*  -------------.--- , %%% >>>>>>>",
">>      %%% , ---.--**--------*  -------------.--- , %%% >>>>>>>",
">>   >> %%% , ---.---*--------*  -------------.--- , %%% >>>>>>>",
"> >>>>> %%% , ---...----------*  -----------...--- , %%% >>>>>>>",
"> >>>>> %%% , ---------------**  ----------------- , %%% >>>>>>>",
" >>>>>> %%%   --------------***  -----------------   %%%  >>>>>>",
" >>>                                                            ",
"     %%%%$++ %%++OOooooooooooooooooooooooooooOO$$%% +++#%%% ====",
"===  %%%%%$$ $@OOooooooooooooooooooooooooooooooOO#@ $$$%%%% ====",
"== < %%%%%%%                                        $%%%%%%   ==",
"== < %%%%%%% oooooooooooooooooooooooooooooooooooooo %%%%%%% < ==",
"== < %%%%%%%                                        %%%%%%% < ==",
"== < %%%%%%% oooooooooooooooooooooooooooooooooooooo %%%%%%% <  =",
"==   %%%%%%%                                        %%%%%%% << =",
"==== %%%%%%% oooooooooooooooooooooooooooooooooooooo %%%%%%%    ="
};
