/* XPM */
static char *c06ddd5002434a7cb3857765345e24c4paUh3baMOWuGnSUv[] = {
/* columns rows colors chars-per-pixel */
"64 64 24 1 ",
"  c black",
". c #763F08",
"X c #75410B",
"o c #374550",
"O c #514C4B",
"+ c #595351",
"@ c #595552",
"# c #615A59",
"$ c #696160",
"% c #716867",
"& c #716768",
"* c #706868",
"= c #786F6F",
"- c #844709",
"; c #83490B",
": c #934F09",
"> c #825115",
", c #A0570B",
"< c #AE5E0A",
"1 c #AF5F0C",
"2 c #8C772E",
"3 c #8F8686",
"4 c #CEBE85",
"5 c white",
/* pixels */
">>>>>>>       >>>>>>>>>>>             >>>        >>>>>>>>>>>    ",
" >>>   ooooooo   >>>>>>   ============   22222222  >>>>>>>  2222",
"2 > ooooooooooooo  >   == *%        $$ ==   2222222 >>>>> 222222",
"22 oooooooooooooooo ===**   33333333   %*=== 2222222 >>> 2222222",
"22  ooooooooooooo   %**  33333333333333  **%   222222 > 22222222",
"222 oooooooooooo ==    333            333    == 22222   22222222",
"222 oooooooooo  ==*  333  555555555555  333  *==  222 o 22222222",
"222 ooooooooo ===* 333  5555555555555555  333 $=== 2 oo 22222222",
"222 oooooooo  ==* 33  55555555555555555555  33 **=  ooo 22222222",
"22 oooooooo =    33 55555   55555555   55555 33    = ooo 2222222",
"22  ooooooo === 33 555   :: 55555555 ::   555 33 *== oooo 222222",
"  o    ooo ===* 33 5  ,,,,: 55555555 :,,,,  5 33 *=== oooo   222",
" ooo >>   ===* 33 5 ,,X,,,: 55555555 :,,,X:, 5 33 *=== ooooo    ",
" ooo >>>>  =* 33 5 ,,,X,,,: 55555555 :,,,X:,, 5 33 $=  oooooo >>",
" ooo >>> =   33 5 ,,,,X,,,: 55555555 :,,,X:,,, 5 33   = ooooo >>",
" ooo >>  ==* 33  ,,,,,X,,,: 55555555 :,,,X:,,,,  33 *== ooooo >>",
" ooo    ==* 33 5 ,,,,,XX,,: 55555555 :,,XX,,,,, 5 33 *== oooo >>",
"  o  22 ==* 33  ,,,,,,,X,,: 55555555 :,,X,,,,,,1  33 *== ooo >>>",
"> o  22 ==* 33 ,,,,,,,,,,,: 55555555 :,,,,,,,,,<, 33 *== ooo >>>",
">  > 22 ==* 33 ,:,,:,,,,,,; 55555555 X,,,,,,,,,:, 33 *== oo >>>>",
">>>> 2     33 ,,:,,:,,,,,-X 55555555 X,,,,,,,,,:,, 33     o >>>>",
">      $$$ 33 ,,:,,:,,,,,,: 55555555 :,,,,,,,,,:,, 33 $$$  >>>>>",
"> oooo $$$ 33 ,::,,,,,,,,,: 55555555 :,,,,,,,,,::, 33 $$$      >",
" ooooo $$$ 33 ,:,,,,,,,,,,: 55555555 :,,,:,,,,,,:, 33 $$$ ooooo ",
"o oooo $$$ 33 ,:,,X:,,,,,,: 55555555 :,,,:,,,X,,:, 33 $$$ oooooo",
"oo ooo $$$ 33 ,,,,X:,,,,,,: 55555555 :,,,:,,,X,,,, 33 $$$ oooooo",
"oo ooo $$$ 33 ,,,,X:,,,,,,: 55555555 :,,,,,,,X,,,, 33 $$$ oooooo",
"o oooo $$$ 33 ,,,,X:,,,,,,: 55555555 :,,,,,,,X,,,, 33 $$$ oooooo",
" oooo  $$$ 33 ,,,,X,,,  ,,: 55555555 :,,  ,,,X,,,, 33 $$$ o     ",
"2     2     3 ,,,XX,, :, ,: 55555555 :, ,: ,,XX,,, 3     o 22222",
"22 >> 2 &** 3 ,,XX,, :,,, : 55555555 : ,,,: ,,XX,, 3 $&=  222222",
"222 >>  *== 3 ,,X,,, :,,, : 55555555 : ,,,: ,,,X,, 3 *== 2222222",
"2222    === 3 ,,X,,, :,,, : 55555555 : ,,,: ,,,X,, 3 *== 2222222",
"2222 o  === 3 ,,,,,, :,,, : 55555555 : ,,,: ,,,,,, 3 === 2222222",
"2222 oo === 3 ,,,,,,, ,, ,: 55555555 :, ,, -,,,,,, 3 === 2222222",
"222 ooo === 3 ,,X,,,,,  :,: 55555555 :,:  ,,,,,X,, 3 === 2222222",
"22 oooo === 3 ,,XX,,,,,,,,: 55555555 :,,,,,,,,XX,, 3 ===  222222",
"2 oooo     33 ,,,X,,,,,,,,: 55555555 :,,,,,,,,X,,, 33      22222",
" ooooo $$$ 33 ,,,XX,,,,,,,X 55555555 X:,,,,,,XX,,, 33 $$$ >     ",
"o      $$$ 33 ,,,,X,,,,,,,X 55555555 X:,,,,,,X,,,, 33 $$$  ooooo",
"ooo >  $$$ 33 ,,,XX,,,,,:XX 55555555 XX:,,,,,XX,,, 33 $$$ oooooo",
"oooo o $$$ 33 ,,,,X,,,,,:X: 55555555 :X:,,,,,X,,,, 33 $$$ oooooo",
"oooo o $$$ 33 ,,,,X,,,:,.X: 55555555 :X:,,,,,X,,,, 33 $$$ oooooo",
"oooo o $$$ 33 ,,,,X,,,,,:X: 55555555 :X:,,,,,X,,,, 33 $$$ oooooo",
"oooo   $$$ 33 ,,,,,,,,,,,X: 55555555 :X:,,,,,,,,,, 33 $$$ oooooo",
"ooo 44      3 ,,,X,,,,,,,X: 55555555 :X:,,,,,,X,,, 3      oooooo",
"o  4444 **= 3 ,,,X,,,,,,,,X 55555555 X,,,,,,,,X,,, 3 #*=   ooooo",
" 2 4444 *== 3 ,,,X,,,,,,,,X 55555555 X,,,,,,,,X,,, 3 *== 22     ",
"22 4444 === 3 ,,,X:,:,:,,,: 55555555 :,,,:,,,:X,,, 3 === 2222222",
"22 444  === 3 ,,,X:,:,:,,,: 55555555 :,,,:,,,:X,,, 3 === 2222222",
"22      === 3 ,,,X:,:::,,,: 55555555 :,,,:,,,:X,,, 3 === 2222222",
"22   22 === 3 ,,,X,,,:,,,,: 55555555 :,,,,,,,,X,,, 3 === 2222222",
"2 22222 === 3 ,,,XXX,,,,,,: 55555555 :,,,,,,XXX,,, 3 === 2222222",
"2 22222 === 3 ,,,,,,,,,,,,: 55555555 :,,,,,,,,,,,, 3 === 2222222",
" 222222 ===   ,,,,,,,,,,,:: 55555555 ::,,,,,,,,,,,   ===  222222",
" 222             ,,,,,,::::          ::::,,,,,,                 ",
"     ====*$$ ==$$       ::: ======== :::       **== $$$&=== >>>>",
">>>  =====** *%##OOOOOOO    ========    OOOOOOO##&% ***==== >>>>",
">> 4 =======                                        *======   >>",
">> 4 ======= OOOOOOOOOOOOO+*========*+OOOOOOOOOOOOO ======= 4 >>",
">> 4 =======                                        ======= 4 >>",
">> 4 ======= OOOOOOOOOOOO+*==========*+OOOOOOOOOOOO ======= 4  >",
">>   =======                                        ======= 44 >",
">>>> ======= OOOOOOOOOO+*==============*@OOOOOOOOOO =======    >"
};
