/* XPM */
static char *_f2062b8de9549ecb79f19874197f252tAzyjhqXbgvaH14c[] = {
/* columns rows colors chars-per-pixel */
"64 64 14 1 ",
"  c #000100",
". c #374450",
"X c #FE0001",
"o c #825115",
"O c #8C772E",
"+ c #C75C13",
"@ c #D46617",
"# c #E36D19",
"$ c #DFA377",
"% c #E0A276",
"& c #2BA3E8",
"* c #CFBE85",
"= c #E2AA83",
"- c white",
/* pixels */
"ooooooooo        ooooooooooo    ooooooo       ooooooooooo       ",
"  ooooo  OOOOOOOO  ooooooo  OOOO ooo   .......   oooooo  OOOOOOO",
"OO  oo OOOOOOOOOOOO ooooo OOOOOOO o .............  oo  OOOOOOOOO",
"OOOO  OOOOOOOOOOOOOO ooo OOOOOOOOO .....      .....  OOOOOOOOOOO",
"OOOO OOOOOOOOOOOOOOOO o OOOOOOOOOO  .   $$$$$$    .  OOOOOOOOOOO",
"OOOO  OOOOOOOOOOOOOOO   OOOOOOOOOOO  $$$$$$$$$$$$$   OOOOOOOOOOO",
"OOOO  OOOOOOOOOOOOOOO . OOO           $$$$$$$$$$$$$$$ OOOOOOOOOO",
"OOOOO OOOOOOOOOOOOOO ..                  $$$$$$$$$$$$ OOOOOOOOOO",
"OOOOO   OOOOOOOOOOO .   +  XX   ######          $$$$$ OOOOOOOOOO",
"OOOO oo  OOOOOOOO    #++ XX  ############    ... $$$$ OOOOOOOOOO",
"OOOO o ..          ###+ XX ################ X ...  $$ OOOOOOOOOO",
"OO  oo ........  ####+ X  ################## X   *     OOOOOOOOO",
"  ooo ........  ####+ X ######@@@@@@@@####### XX **** o  OOOOOOO",
"ooooo .......  ####+ X ##############@@@@##### XX *** oo        ",
"  ooo ...... #####+ XX #################@@@@### X **    ....... ",
".. oo .....  ####+ XX ######################@### X   ...........",
"... o ..... ####++ X ######+++++++###########@##@ X ............",
".... o ...    ##+ XX ##@+++@@@@@@+++++#######@@#@ X ............",
".....  ... ===  + X ####@@@######@@@@@++++####@##@ X ...........",
"..... o . =====$  X ##################@@@@++###@#@ X ...........",
"..... o  ======$ X #######################@++#####@ X ..........",
"..... oo == ==$$ X  #######################@++####@ X ..........",
"..... oo =- ==% XX  ########################@++###@ X   ........",
"..... o =-- ==$ XX = ########################@++@@@  ###  ......",
".... o  =-- ==$ XX == ########################@+@  ##@+### .....",
"... o O =&& ==$ XX == #######################@    ###@+### .....",
".. o O ==& ==$ XX === ###@++++++++##########@ ####@@@++#### ....",
"  oo O == ===$ XX ==== ###@@@@@@@@++++++++##@ ##@@++++###@# ... ",
"oooo O ======$ XX ==== ###########@@@@@@@+++ ###++#####@@+##   o",
"ooooo  ======$ XX ==== #################@@@@ #####@@@@@+++##  oo",
"ooooo  ======$ XX ==== ###################@@ ###++++++++####  oo",
"o    . ======$ XX ==== ####################@ ###############  oo",
" ..... ======$ XX ==== ####################@ ###############  o ",
"...... ======$ XX ==== ###################@@ ###++++++++####   .",
"...... ======$ XX ==== #################@@@@ #####@@@@@+++##  ..",
"...... ======% XX ==== ###########@@@@@@@+++ ###++#####@@+## ...",
"...... == ===$ XX ==== ###@@@@@@@@++++++++##@ ##@@++++###@# ....",
"...... ==& ==$ XX === ###@++++++++##########@ ####@@@++#### ....",
"....... =&& ==% XX == #######################@    ###@+###  ....",
"....... =-- ==% XX == ########################@+@  ##@+###  ....",
"....... =-- ==$ XX = ########################@++@@@  ###  .  ...",
"........ =- ==$ XX  ########################@++###@ X   ....  ..",
"........ == ===$ X  #######################@++####@ X ....... ..",
"........ ======$ X #######################@++#####@ X .......  .",
" ........ =====%  X ##################@@@@++###@#@ X ........ o ",
"o    ..... ===  + X ####@@@######@@@@@++++####@##@ X ........ oo",
"ooooo         ##+ XX ##@+++@@@@@@+++++#######@@#@ X ........ ooo",
"  ooooo *** ####++ X ######+++++++###########@##@ X .......     ",
"OO  ooo **** ####+ XX ######################@### X ......  OOOOO",
"OOOO oo  *** #####+ XX #################@@@@### X ......  OOOOOO",
"OOOOO          ####+ X ##############@@@@##### XX ....  OOOOOOOO",
"OOOOOO ..   ..  ####+ X ######@@@@@@@@####### XX       OOOOOOOOO",
"OOOOOO . $$$ ... ####+ X  ################## X  OOOOO  OOOOOOOOO",
"OOOOOO . $$$$ ...  ###+ XX ################ X OOOOOOO  OOOOOOOOO",
"OOOOO .. $$$$$       #++ XX  ############    OOOOOOOO o OOOOOOOO",
"OOOO ... $$$$$$$$$$$$   +  XX   ######     OOOOOOOOOO oo OOOOOOO",
"OO  .... $$$$$$$$$$$$$$$                OO OOOOOOOOOO ooo   OOOO",
"  .......   $$$$$$$$$$$$$$$                OOOOOOOOO   oooo     ",
"............    $$$$$$$$$     oooo ***  OOO OOOOOOOO OO ooo ....",
"................          *** oooo ***  OOO OOOOOOOO OOO ooo ...",
"........................  *** oooo ***  OOOO  OOOO  OOOO ooo  ..",
"....................... o  **  ooo ***  OOOOOO    OOOOOO ooooo .",
" ....................  ooo *** ooo  **  OOOOOOOOOOOOOOO ooooooo ",
"o    ............    ooooo     ooooo  oo   OOOOOOOOO   ooooooooo"
};
