/* XPM */
static char *_624fc1696244ef8ab5d9b6f30b4855drL8kCR6ujVGAG6r2[] = {
/* columns rows colors chars-per-pixel */
"64 64 14 1 ",
"  c black",
". c #374550",
"X c #FE0101",
"o c #825115",
"O c #8C762E",
"+ c #C65C13",
"@ c #D46617",
"# c #E26D19",
"$ c #DFA377",
"% c #E0A276",
"& c #2BA2E9",
"* c #CFBE85",
"= c #E2AB83",
"- c white",
/* pixels */
"ooooooo       ooooooooooo       ooooooooo        ooooooooooo    ",
" ooo   .......   oooooo  OOOOOOO  ooooo  OOOOOOOO  ooooooo  OOOO",
"O o .............  oo  OOOOOOOOOOO  oo OOOOOOOOOOOO ooooo OOOOOO",
"OO ................  OOOOOOOOOOOOOOO  OOOOOOOOOOOOOO ooo OOOOOOO",
"OO  ...............  OOOOOOOOOOOOOOO OOOOOOOOOOOOOOOO o OOOOOOOO",
"OOO ............... OOOOOOOOOOOOOOOO  OOOOOOOOOOOOOOO   OOOOOOOO",
"OOO ............... OOOOOOOOOOO       OOOOOOOOOOOOOOO . OOOOOOOO",
"OOO ............... OOOO                 OOOOOOOOOOO .. OOOOOOOO",
"OOO ............... O   +  XX   ######     OOOOOOOO ... OOOOOOOO",
"OO ................  #++ XX  ############    OOOO  ..... OOOOOOO",
"OO  .............  ###+ XX ################ X    ........ OOOOOO",
"  .    .......   ####+ X  ################## X  ..........   OOO",
" ... oo         ####+ X ######@@@@@@@@####### XX ...........    ",
" ... oooooooo  ####+ X ##############@@@@##### XX ........... oo",
" ... ooooooo #####+ XX #################@@@@### X ........... oo",
" ... oo      ####+ XX ######################@### X .......... oo",
" ...   OOOO ####++ X ######+++++++###########@##@ X ......... oo",
"  .  OOOOO    ##+ XX ##@+++@@@@@@+++++#######@@#@ X ........ ooo",
"o .  OOOOO ===  + X ####@@@######@@@@@++++####@##@ X ....... ooo",
"o  o OOOO =====$  X ##################@@@@++###@#@ X ...... oooo",
"oooo OOO ======$ X #######################@++#####@ X ..... oooo",
"o      O == ==$$ X  #######################@++####@ X ...  ooooo",
"o ....   =- ==% XX  ########################@++###@ X    o     o",
" ...... =-- ==$ XX = ########################@++@@@  ###  ..... ",
". ..... =-- ==$ XX == ########################@+@  ##@+### .....",
".. .... =&& ==$ XX == #######################@    ###@+### .....",
".. ... ==& ==$ XX === ###@++++++++##########@ ####@@@++#### ....",
". .... == ===$ XX ==== ###@@@@@@@@++++++++##@ ##@@++++###@# ....",
" ....  ======$ XX ==== ###########@@@@@@@+++ ###++#####@@+##    ",
"O      ======$ XX ==== #################@@@@ #####@@@@@+++## OOO",
"OO oo  ======$ XX ==== ###################@@ ###++++++++#### OOO",
"OOO oo ======$ XX ==== ####################@ ############### OOO",
"OOOO   ======$ XX ==== ####################@ ############### OOO",
"OOOO . ======$ XX ==== ###################@@ ###++++++++#### OOO",
"OOOO . ======$ XX ==== #################@@@@ #####@@@@@+++## OOO",
"OOO .. ======% XX ==== ###########@@@@@@@+++ ###++#####@@+## OOO",
"OO ... == ===$ XX ==== ###@@@@@@@@++++++++##@ ##@@++++###@# OOOO",
"O .... ==& ==$ XX === ###@++++++++##########@ ####@@@++#### OOOO",
" .....  =&& ==% XX == #######################@    ###@+###      ",
".       =-- ==% XX == ########################@+@  ##@+### .....",
"... o . =-- ==$ XX = ########################@++@@@  ###  ......",
".... ... =- ==$ XX  ########################@++###@ X   ........",
".... ... == ===$ X  #######################@++####@ X   ........",
".... ... ======$ X #######################@++#####@ X o ........",
"....   .. =====%  X ##################@@@@++###@#@ X oo ........",
"... ** ... ===  + X ####@@@######@@@@@++++####@##@ X oo   ......",
".  **** ..    ##+ XX ##@+++@@@@@@+++++#######@@#@ X o  OO  .....",
" O **** ... ####++ X ######+++++++###########@##@ X  OOOOOO     ",
"OO **** .... ####+ XX ######################@### X  OOOOOOOOOOOO",
"OO *** o  .. #####+ XX #################@@@@### X o OOOOOOOOOOOO",
"OO          .  ####+ X ##############@@@@##### XX o OOOOOOOOOOOO",
"OO   OOOOO      ####+ X ######@@@@@@@@####### XX     OOOOOOOOOOO",
"O OOOOOOOO OOOOO ####+ X  ################## X  ....   OOOOOOOOO",
"O OOOOOOOO OOOOOO  ###+ XX ################ X .......   OOOOOOOO",
" OOOOOOOOO OOOOOOOO  #++ XX  ############    ..........   OOOOOO",
" OOOOOOOOO OOOOOOOOOO   +  XX   ######     ..............       ",
"     OOOOO OOOOOOOOOO oo                .................. ooooo",
"ooo        OOOOOOOOO   oooo           .................... ooooo",
"oo ***  OOO OOOOOOOO OO ooo ..............................    oo",
"oo ***  OOO OOOOOOOO OOO ooo ............................ *** oo",
"oo ***  OOOO  OOOO  OOOO ooo  ..........................  *** oo",
"oo ***  OOOOOO    OOOOOO ooooo ........................ o  **  o",
"oo  **  OOOOOOOOOOOOOOO ooooooo  ....................  ooo *** o",
"oooo  oo   OOOOOOOOO   oooooooooo    ............    ooooo     o"
};
