/* XPM */
static char *_a98e77f6add4e56e75e22bd074940a6VaIPAYggT12fXrMM[] = {
/* columns rows colors chars-per-pixel */
"64 64 15 1 ",
"  c black",
". c #374550",
"X c #FF0100",
"o c #825115",
"O c #8C762E",
"+ c #C65C12",
"@ c #D46616",
"# c #D46717",
"$ c #E26D18",
"% c #DFA376",
"& c #E1A377",
"* c #2BA2E8",
"= c #CFBE85",
"- c #E2AB83",
"; c #FFFEFF",
/* pixels */
"ooooooooo        ooooooooooo    ooooooo       ooooooooooo       ",
"  ooooo  OOOOOOOO  ooooooo  OOOO ooo   .......   oooooo  OOOOOOO",
"OO  oo OOOOOOOOOOOO ooooo OOOOOOO o .............  oo  OOOOOOOOO",
"OOOO  OOOOOOOOOOOO       OOOOOOOOO ................  OOOOOOOOOOO",
"OOOO OOOOOOOOO    %%%%%%   OOOOOOO  ...............  OOOOOOOOOOO",
"OOOO  OOOOO   %%%%%%%%%%%%%  OOOOOO ............... OOOOOOOOOOOO",
"OOOO  OOOO %%%%%%%%%%%%%%%           .............. OOOOOOOOOOOO",
"OOOOO OOOO %%%%%%%%%%%%                  .......... OOOOOOOOOOOO",
"OOOOO   OO %%%%%          $$$$$$   XX  +   ........ OOOOOOOOOOOO",
"OOOO oo  O %%%% O      $$$$$$$$$$$$  XX ++$   .....  OOOOOOOOOOO",
"OOOO o ..  %%    . X $$$$$$$$$$$$$$$$ XX +$$$   .  = OOOOOOOOOOO",
"OO  oo ....   ..  X $$$$$$$$$$$$$$$$$$  X +$$$$  ====  OOOOOOOOO",
"  ooo ......... XX $$$$$$$@@@@@@@@$$$$$$ X +$$$$  === o  OOOOOOO",
"ooooo ........ XX $$$$$@@@@$$$$$$$$$$$$$$ X +$$$$  == oo        ",
"  ooo ........ X $$$@@@@$$$$$$$$$$$$$$$$$ XX +$$$$$     ....... ",
".. oo ....... X $$$@$$$$$$$$$$$$$$$$$$$$$$ XX +$$$$  ...........",
"... o ...... X @$$@$$$$$$$$$$$+++++++$$$$$$ X ++$$$$ ...........",
".... o ..... X @$@@$$$$$$$+++++@@@@@@+++@$$ XX +$$    ..........",
".....  .... X @$$@$$$$++++@@@@@$$$$$$@@@$$$$ X +  --- ..........",
"..... o ... X @$@$$$++@@@@$$$$$$$$$$$$$$$$$$ X  %----- .........",
"..... o .. X @$$$$$++@$$$$$$$$$$$$$$$$$$$$$$$ X %------ ........",
"..... oo   X @$$$$++@$$$$$$$$$$$$$$$$$$$$$$$  X %%-- -- ........",
"..... oo   X @$$$++@$$$$$$$$$$$$$$$$$$$$$$$$  XX &-- ;- ........",
".....   $$$  @@@++@$$$$$$$$$$$$$$$$$$$$$$$$ - XX %-- ;;- .......",
"....  $$$+@$$  @+@$$$$$$$$$$$$$$$$$$$$$$$$ -- XX %-- ;;- .......",
"... o $$$+@$$$    @$$$$$$$$$$$$$$$$$$$$$$$ -- XX %-- **- .......",
".. o $$$$++@@@$$$$ @$$$$$$$$$$++++++++@$$$ --- XX %-- *-- ......",
"  oo $@$$$++++@@$$ @$$++++++++@@@@@@@@$$$ ---- XX %--- -- ..... ",
"ooo $$+@@$$$$$++$$$ +++@@@@@@@$$$$$$$$$$$ ---- XX %------      o",
"ooo $$+++@@@@@$$$$$ @@@@$$$$$$$$$$$$$$$$$ ---- XX %------     oo",
"ooo $$$$++++++++$$$ @@$$$$$$$$$$$$$$$$$$$ ---- XX %------  == oo",
"o   $$$$$$$$$$$$$$$ @$$$$$$$$$$$$$$$$$$$$ ---- XX %------ === oo",
" .. $$$$$$$$$$$$$$$ @$$$$$$$$$$$$$$$$$$$$ ---- XX %------ === o ",
"... $$$$++++++++$$$ @@$$$$$$$$$$$$$$$$$$$ ---- XX %------ ===  .",
"... $$+++@@@@@$$$$$ @@@@$$$$$$$$$$$$$$$$$ ---- XX %------ === ..",
"... $$+@@$$$$$++$$$ +++@@@@@@@$$$$$$$$$$$ ---- XX &------  = ...",
".... $@$$$++++@@$$ @$$++++++++@@@@@@@@$$$ ---- XX %--- --   ....",
".... $$$$++@@@$$$$ @$$$$$$$$$$++++++++@$$$ --- XX %-- *-- o ....",
"..... $$$+@$$$    @$$$$$$$$$$$$$$$$$$$$$$$ -- XX &-- **- .  ....",
"..... $$$+@$$  @+@$$$$$$$$$$$$$$$$$$$$$$$$ -- XX &-- ;;- .. ....",
"......  $$$  @@@++@$$$$$$$$$$$$$$$$$$$$$$$$ - XX %-- ;;- ..  ...",
"........   X @$$$++@$$$$$$$$$$$$$$$$$$$$$$$$  XX %-- ;- ....  ..",
".......... X @$$$$++@$$$$$$$$$$$$$$$$$$$$$$$  X %--- -- ..... ..",
".......... X @$$$$$++@$$$$$$$$$$$$$$$$$$$$$$$ X %------ .....  .",
" .......... X @$@$$$++@@@@$$$$$$$$$$$$$$$$$$ X  &----- ...... o ",
"o    ...... X @$$@$$$$++++@@@@@$$$$$$@@@$$$$ X +  --- ....... oo",
"ooooo        X @$@@$$$$$$$+++++@@@@@@+++@$$ XX +$$    ...... ooo",
"  ooooo ===  X @$$@$$$$$$$$$$$+++++++$$$$$$ X ++$$$$ ......     ",
"OO  ooo ===== X $$$@$$$$$$$$$$$$$$$$$$$$$$ XX +$$$$ .....  OOOOO",
"OOOO oo  ===   X $$$@@@@$$$$$$$$$$$$$$$$$ XX +$$$$$ ....  OOOOOO",
"OOOOO          XX $$$$$@@@@$$$$$$$$$$$$$$ X +$$$$  ...  OOOOOOOO",
"OOOOOO ........ XX $$$$$$$@@@@@@@@$$$$$$ X +$$$$       OOOOOOOOO",
"OOOOOO .........  X $$$$$$$$$$$$$$$$$$  X +$$$$ OOO %%% OOOOOOOO",
"OOOOOO ........... X $$$$$$$$$$$$$$$$ XX +$$$  OOO %%%% OOOOOOOO",
"OOOOO .............    $$$$$$$$$$$$  XX ++$       %%%%% OOOOOOOO",
"OOOO ................     $$$$$$   XX  +   %%%%%%%%%%%%  OOOOOOO",
"OO  ..................                  %%%%%%%%%%%%%%% o   OOOO",
"  ......................             %%%%%%%%%%%%%%%   oooo     ",
"..........................    oooo     %%%%%%%%%     OO ooo ....",
"......................... === oooo ===          OOOO OOO ooo ...",
"........................  === oooo ===  OOOO  OOOO  OOOO ooo  ..",
"....................... o  ==  ooo ===  OOOOOO    OOOOOO ooooo .",
" ....................  ooo === ooo  ==  OOOOOOOOOOOOOOO ooooooo ",
"o    ............    ooooo     ooooo  oo   OOOOOOOOO   ooooooooo"
};
