/* XPM */
static char *_c62fb193b4e49d0f2cbd96a00c72aeeqrppchonHNsHaIex[] = {
/* columns rows colors chars-per-pixel */
"64 64 14 1 ",
"  c black",
". c #374550",
"X c #FF0100",
"o c #825015",
"O c #8C762E",
"+ c #C65D13",
"@ c #D56617",
"# c #E26D18",
"$ c #DEA376",
"% c #E1A377",
"& c #2BA2E8",
"* c #CFBE85",
"= c #E3AB83",
"- c #FFFEFE",
/* pixels */
"OOOO   OOOOOOOOOOOOOOOOOO *** o  ..................  oo OOOOOOOO",
"OOOO .   OOOOOOOOOOOOOO  ****  ...................... o OOOOOOOO",
"OOOO .. o   OOOOOOOO   o **** ........................  OOOOOOOO",
"OOO ... oooo          oo   * ..........................  OOOOOOO",
"OO .... oo  ..........  oo  ............................  OOOOOO",
"O .....   ..............  o ............................ o OOOOO",
" .....  ..................            .................. oo     ",
".      ................   ============   ...............   .....",
"... o .     ........   ==================   ............ .......",
".... . $$$$$ ...... ===--&& ======== &&--=== .......... ........",
".... . $$$$$ ....  ===---& ========== &---===  .......  ........",
".... . $$$$$ ...  ===     ============     ===   .... o ........",
"....  $$$$$ ..  # ============================ #  .  oo ........",
"... * $$$$ .. ### ========$$%$$$$$$$$$======== ### oooo   ......",
".  ** $$$ ..  #### ===$$%%            $$$%$== ####  o  OO  .....",
" O ** $$$ .. ##### %$$    XXXXXXXXXXXX    $$$ #####  OOOOOO     ",
"OO * $$$$ . ####+++   XXXXXXXXXXXXXXXXXXXX   +++####  OOOOOOOOOO",
"OO * $$$$  ####++   XXXXXX            XXXXXX   ++#### OOOOOOOOOO",
"OO   $$$$  ###+  XXX      ============      XXX  +###  OOOOOOOOO",
"OO   $$$$ ###+ XXX  #  ==================  #  XXX +### OOOOOOOOO",
"O OO $$$$ ##+ XX  ##### ================ #####  XX +## OOOOOOOOO",
"O OO $$$ ##+ XX ########   ==========   ######## XX +## OOOOOOOO",
" OOO $$$ ++ X  ############          ############  X ++   OOOOOO",
" OOO $$$ + X ####@############################@#### X +         ",
"     $$ + X #####+@##########################@+##### X + . ooooo",
"ooo   $  XX #####+@#######@##########@#######@+##### XX  . ooooo",
"oo ** $  X ######+@#######+@########@+#######@+###### X  .    oo",
"oo **   X ######+@########+@########@+########@+###### X  *** oo",
"oo **   X ######+@########+@########@+########@+###### X  *** oo",
"oo **    #######+@########+@########@+########@+#######    **  o",
"oo  **   ###@###+@########+@########@+########@+###@###    *** o",
"oooo     ###@###+@########+@########@+########@+###@###        o",
"oooooo  ####@###+@########+@########@+########@+###@####  oo    ",
" ooo    ####@###++@#######+@########@+#######@++###@####    OOOO",
"O o ..  ####@####+@########+@######@+########@+####@####  OOOOOO",
"OO ...  ####@####+@########+@######@+########@+####@####   OOOOO",
"OO  ..  ####@####+@########+@######@+########@+####@####   OOOOO",
"OOO ..  ####@@###+@########+@######@+########@+###@@####  $ OOOO",
"OOO ..   ####@####+@#######+@######@+#######@+####@####  $$ OOOO",
"OOO ..   ####@####+@#######+@######@+#######@+####@####  $$ OOOO",
"OOO ...  ####@@###+@#######+@@####@@+#######@+###@@####  $$$ OOO",
"OO ....   ####@###+@#######++@####@++#######@+###@####  $$$$ OOO",
"OO  ....  ####@####+@#######+@@##@@+#######@+####@####  $$$$ OOO",
"  .    ..  ###@####++@######+@@@@@@+######@++####@###   $$$$ OOO",
" ... oo   X ###@####++@###@@        @@###@++####@### X  $$$$    ",
" ... ooooo X ###@@###++@#@  ########  @#@++###@@### X . $$$$  oo",
" ... oooooo X ###@@###++@ ############ @++###@@### X .. $$$ . oo",
" ... oo     XX ####@###++ ############ ++###@#### XX .. $$$ . oo",
" ...   OOOOO XX @@#####@@ #@+#+##+#+@# @@#####@@ XX .. $$$$ . oo",
"  .  OOOOOOOO  X  @@###@  #@+#+##+#+@#  @###@@  X  .. $$$$$  ooo",
"o .  OOOOOOOOOO XX  @@@@ #@+#@+##+@#+@# @@@@  XX ...  $$$$ . ooo",
"o  o OOOOOOOOOO   XX    ##@+#@+##+@#+@##    XX  .... $$$$$  oooo",
"oooo OOOOOOOOOO o   XXX ##@+#@+##+@#+@## XXX  ...... $$$$$  oooo",
"o      OOOOOO  oo ..   #@@++#@+##+@#++@@#   .........      ooooo",
"o ....       oooo .... #+++##@+##+@##+++#  ............. o     o",
" ...........        .. #####@++##++@#####        ....     ..... ",
". ......... OOOOOOOO    ####@+####+@#### OOOOO       oo ........",
".. ....... OOOOOOOOOOOO ###@++####++@### OOOOOOOOOOO o .........",
".. ....... OOOOOOOOOOOOO  ############  OOOOOOOOOOOOO  .........",
". ....... OOOOOOOOOOOOOOO   ########  OOOOOOOOOOOOOOO  .........",
" ....    OOOOOOOOOOOOOOOO            OOOOOOOOOOOOOOOO  ....     ",
"O     OOOOOOOOOOOOOOOOOOOO    ooooooo OOOOOOOOOOOOOO oo .. OOOOO",
"OO oo OOOOOOOOOOOOOOOOOOOO ** ooooooo          OO   oooo  OOOOOO",
"OOO oo OOOOOOOOOOOOOOOOOO *** ooo    ....          ooooo OOOOOOO"
};
