/* XPM */
static char *_4578ad5473740efe01bfa52d378cd36j5QqoJ0jiajILZ8B[] = {
/* columns rows colors chars-per-pixel */
"64 64 14 1 ",
"  c #000100",
". c #374550",
"X c #FF0100",
"o c #825015",
"O c #8C762E",
"+ c #C75D12",
"@ c #D46616",
"# c #E26C18",
"$ c #DFA376",
"% c #E0A276",
"& c #2BA3E8",
"* c #CFBE85",
"= c #E2AB82",
"- c #FFFEFF",
/* pixels */
"OOOO   OOOOOOOOOOOOOOOOOO *** o  ..................  oo OOOOOOOO",
"OOOO .   OOOOOOOOOOOOOO  ****  ...................... o OOOOOOOO",
"OOOO .. o   OOOOOOOO   o **** ........................  OOOOOOOO",
"OOO ... oooo          oo   *        ...................  OOOOOOO",
"OO .... oo  ..........  oo  ########  ..................  OOOOOO",
"O .....   ..............  ############  ................ o OOOOO",
" .....  ............... ###@++####++@### ............... oo     ",
".      ................ ####@+####+@#### ...............   .....",
"... o ................ #####@++##++@##### .............. .......",
".... ................. #+++##@+##+@##+++# ............. ........",
".... .     .........   #@@++#@+##+@#++@@#   ..........  ........",
"....  $$$$$ ......  XXX ##@+#@+##+@#+@## XXX  ....... o ........",
"....  $$$$$ ....  XX    ##@+#@+##+@#+@##    XX  ...  oo ........",
"... * $$$$  ... XX  @@@@ #@+#@+##+@#+@# @@@@  XX   oooo   ......",
".  * $$$$$ ..  X  @@###@  #@+#+##+#+@#  @###@@  X  oo  OO  .....",
" O * $$$$ .. XX @@#####@@ #@+#+##+#+@# @@#####@@ XX  OOOOOO     ",
"OO * $$$ .. XX ####@###++ ############ ++###@#### XX OOOOOOOOOOO",
"OO * $$$  . X ###@@###++@ ############ @++###@@### X OOOOOOOOOOO",
"OO  $$$$   X ###@@###++@#@  ########  @#@++###@@### X OOOOOOOOOO",
"OO  $$$$  X ###@####++@###@@        @@###@++####@### X OOOOOOOOO",
"O O $$$$   ###@####++@######+@@@@@@+######@++####@###  OOOOOOOOO",
"O O $$$$  ####@####+@#######+@@##@@+#######@+####@####  OOOOOOOO",
" OO $$$$  ####@###+@#######++@####@++#######@+###@####    OOOOOO",
" OO $$$  ####@@###+@#######+@@####@@+#######@+###@@####         ",
"     $$  ####@####+@#######+@######@+#######@+####@####    ooooo",
"ooo  $$  ####@####+@#######+@######@+#######@+####@####    ooooo",
"oo * $  ####@@###+@########+@######@+########@+###@@####      oo",
"oo **   ####@####+@########+@######@+########@+####@####  *** oo",
"oo **   ####@####+@########+@######@+########@+####@####  *** oo",
"oo ***  ####@####+@########+@######@+########@+####@####   **  o",
"oo  **  ####@###++@#######+@########@+#######@++###@####   *** o",
"oooo    ####@###+@########+@########@+########@+###@####       o",
"oooooo   ###@###+@########+@########@+########@+###@###   oo    ",
" ooo     ###@###+@########+@########@+########@+###@###     OOOO",
"O o ..   #######+@########+@########@+########@+#######    OOOOO",
"OO ...  X ######+@########+@########@+########@+###### X   OOOOO",
"OO  ..  X ######+@########+@########@+########@+###### X   OOOOO",
"OOO ...  X ######+@#######+@########@+#######@+###### X  $ OOOOO",
"OOO ...  XX #####+@#######@##########@#######@+##### XX  $  OOOO",
"OOO ... + X #####+@##########################@+##### X + $$ OOOO",
"OOO ...  + X ####@############################@#### X + $$$ OOOO",
"OO ..... ++ X  ############          ############  X ++ $$$ OOOO",
"OO  .... ##+ XX ########   ==========   ######## XX +## $$$ OOOO",
"  .    .. ##+ XX  ##### ================ #####  XX +## $$$$  OOO",
" ... oo   ###+ XXX  #  ==================  #  XXX +### $$$$     ",
" ... oooo  ###+  XXX      ============      XXX  +###  $$$$ . oo",
" ... ooooo ####++   XXXXXX            XXXXXX   ++####  $$$$ . oo",
" ... oo     ####+++   XXXXXXXXXXXXXXXXXXXX   +++#### . $$$$ . oo",
" ...   OOOOO ##### $$$    XXXXXXXXXXXX    $$% ##### .. $$$ .. oo",
"  .  OOOOOOO  #### ==$%$$$            %%$$=== ####  .. $$$ . ooo",
"o .  OOOOOOOO ### ========$$$$$$$$$%$$======== ### .. $$$$ . ooo",
"o  o OOOOOOOOO  # ============================ #  .. $$$$$  oooo",
"oooo OOOOOOOOOO   ===     ============     ===  ... $$$$$ . oooo",
"o      OOOOOO  oo  ===---& ========== &---===  .... $$$$$  ooooo",
"o ....       oooo . ===--&& ======== &&--=== ...... $$$$$      o",
" ...........           ==================        ...      ..... ",
". ......... OOOOOOOO      ============   OOOOO       oo ........",
".. ....... OOOOOOOOOOOO  .            OOOOOOOOOOOOOO o .........",
".. ....... OOOOOOOOOOOOOO ........ o OOOOOOOOOOOOOOOO  .........",
". ....... OOOOOOOOOOOOOOO .....   oo OOOOOOOOOOOOOOOO  .........",
" ....    OOOOOOOOOOOOOOOO      ooooo OOOOOOOOOOOOOOOO  ....     ",
"O     OOOOOOOOOOOOOOOOOOOO    ooooooo OOOOOOOOOOOOOO oo .. OOOOO",
"OO oo OOOOOOOOOOOOOOOOOOOO ** ooooooo          OO   oooo  OOOOOO",
"OOO oo OOOOOOOOOOOOOOOOOO *** ooo    ....          ooooo OOOOOOO"
};
