/* XPM */
static char *_791614f2dc049e4dbff7e3cfbcdd6bfh4dUrLPpGTIohAep[] = {
/* columns rows colors chars-per-pixel */
"64 64 14 1 ",
"  c black",
". c #374550",
"X c #FE0100",
"o c #825115",
"O c #8C762E",
"+ c #C65D13",
"@ c #D46617",
"# c #E26D19",
"$ c #DFA377",
"% c #E0A276",
"& c #2BA2E9",
"* c #CFBE85",
"= c #E2AB83",
"- c white",
/* pixels */
"ooooooo       ooooooooooo       ooooooooo        ooooooooooo    ",
" ooo   .......   oooooo  OOOOOOO  ooooo  OOOOOOOO  ooooooo  OOOO",
"O o .............  oo  OOOOOOOOOOO  oo OOOOOOOOOOOO ooooo OOOOOO",
"OO ................  OOOOOOOOOOOOOOO  OOOOOOOOOOOOOO ooo OOOOOOO",
"OO  ...............  OOOOOOOOOOOOOOO OOOOOOOOOOOOOOOO o OOOOOOOO",
"OOO ............... OOOOOOOOOOOOOOOO  OOOOOOOOOOOOOOO   OOOOOOOO",
"OOO ............... OOOOOO       OOO  OOOOOOOOOOOOOOO . OOOOOOOO",
"OOO ............... OOOO                OOOOOOOOOOOO .. OOOOOOOO",
"OOO ............... O     ######   XX  +   OOOOOOOO ... OOOOOOOO",
"OO ................    ############  XX ++#  OOOO  ..... OOOOOOO",
"OO  .............  X ################ XX +###    ........ OOOOOO",
"  .    .......    X ##################  X +#### ..........   OOO",
" ... oo       * XX #######@@@@@@@@###### X +####  ..........    ",
" ... oooooooo  XX #####@@@@############## X +####  .......... oo",
" ... oooooooo  X ###@@@@################# XX +##### ......... oo",
" ... oo       X ###@###################### XX +#### ......... oo",
" ...   OOOOO X @##@###########+++++++###### X ++#### ........ oo",
"  .  OOOOOOO X @#@@#######+++++@@@@@@+++@## XX +##    ...... ooo",
"o .  OOOOOO X @##@####++++@@@@@######@@@#### X +  === ...... ooo",
"o  o OOOOOO X @#@###++@@@@################## X  %===== .... oooo",
"oooo OOOOO X @#####++@####################### X $====== ... oooo",
"o      OOO X @####++@#######################  X $=== == .  ooooo",
"o ....     X @###++@########################  XX $== -=  o     o",
" .....  ###  @@@++@######################## = XX $== --=  ..... ",
". ... ###+@##  @+@######################## == XX %== --= .......",
".. .. ###+@###    @####################### == XX %== &&= .......",
".. . ####++@@@#### @##########++++++++@### === XX $== &== ......",
". .. #@###++++@@## @##++++++++@@@@@@@@### ==== XX $=== == ......",
" .. ##+@@#####++### +++@@@@@@@########### ==== XX %====== .     ",
"O   ##+++@@@@@##### @@@@################# ==== XX $======  OOOOO",
"OO  ####++++++++### @@################### ==== XX $====== OOOOOO",
"OOO ############### @#################### ==== XX $====== OOOOOO",
"OOO ############### @#################### ==== XX $====== OOOOOO",
"OOO ####++++++++### @@################### ==== XX $====== OOOOOO",
"OOO ##+++@@@@@##### @@@@################# ==== XX $====== OOOOOO",
"OOO ##+@@#####++### +++@@@@@@@########### ==== XX $====== OOOOOO",
"OO . #@###++++@@## @##++++++++@@@@@@@@### ==== XX $=== == OOOOOO",
"O .. ####++@@@#### @##########++++++++@### === XX $== &==  OOOOO",
" .... ###+@###    @####################### == XX $== &&= oo     ",
".     ###+@##  @+@######################## == XX $== --=   .....",
"... o   ###  @@@++@######################## = XX $== --= .......",
".... ...   X @###++@########################  XX %== -= ........",
".... ..... X @####++@#######################  X $$== == ........",
".... ..... X @#####++@####################### X $====== ........",
"....   .... X @#@###++@@@@################## X  $=====  ........",
"... ** .... X @##@####++++@@@@@######@@@#### X +  === o   ......",
".  **** .... X @#@@#######+++++@@@@@@+++@## XX +##     OO  .....",
" O **** .... X @##@###########+++++++###### X ++#### OOOOOO     ",
"OO **** ..... X ###@###################### XX +#### OOOOOOOOOOOO",
"OO *** o  .... X ###@@@@################# XX +##### OOOOOOOOOOOO",
"OO          .. XX #####@@@@############## X +####   OOOOOOOOOOOO",
"OO   OOOOO      XX #######@@@@@@@@###### X +####     OOOOOOOOOOO",
"O OOOOOOOO OOOOO  X ##################  X +#### ....   OOOOOOOOO",
"O OOOOOOOO OOOOOOO X ################ XX +###  ......   OOOOOOOO",
" OOOOOOOOO OOOOOOOO    ############  XX ++#  ..........   OOOOOO",
" OOOOOOOOO OOOOOOOOOO     ######   XX  +   ..............       ",
"     OOOOO OOOOOOOOOO o                 .................. ooooo",
"ooo        OOOOOOOOO   ooo        ........................ ooooo",
"oo ***  OOO OOOOOOOO OO ooo ..............................    oo",
"oo ***  OOO OOOOOOOO OOO ooo ............................ *** oo",
"oo ***  OOOO  OOOO  OOOO ooo  ..........................  *** oo",
"oo ***  OOOOOO    OOOOOO ooooo ........................ o  **  o",
"oo  **  OOOOOOOOOOOOOOO ooooooo  ....................  ooo *** o",
"oooo  oo   OOOOOOOOO   oooooooooo    ............    ooooo     o"
};
