/* XPM */
static char *_c3b3b4cbcd74ce0ab78d075d89755d6arZKhhipVrESXHZp[] = {
/* columns rows colors chars-per-pixel */
"64 64 16 1 ",
"  c black",
". c #374550",
"X c #FF0100",
"o c #825115",
"O c #8C762E",
"+ c #C75D13",
"@ c #D56417",
"# c #D46716",
"$ c #E26D18",
"% c #E36C19",
"& c #DFA376",
"* c #E0A276",
"= c #2BA2E9",
"- c #CFBE85",
"; c #E2AA83",
": c #FFFEFF",
/* pixels */
"ooooooooo        ooooooooooo    ooooooo       ooooooooooo       ",
"  ooooo  OOOOOOOO  ooooooo  OOOO ooo   .......   oooooo  OOOOOOO",
"OO  oo OOOOOOOOOOOO ooooo OOOOOOO o .............  oo  OOOOOOOOO",
"OOOO  OOOOOOOOOOOOOO ooo OOOOOOOOO ................  OOOOOOOOOOO",
"OOOO OOOOOOOOOOOOOOOO o OOOOOOOOOO  ..          ...  OOOOOOOOOOO",
"OOOO  OOOOOOOOOOOOOOO   OOOOOOOOOO     &&&&&&&&&    OOOOOOOOOOOO",
"OOOO  OOOOOOOOOOOOOOO .              &&&&&&&&&&&&&&&   OOOOOOOOO",
"OOOOO OOOOOOOOOOOOOO .                  &&&&&&&&&&&&&&& OOOOOOOO",
"OOOOO   OOOOOOOOOOO .     $$$$$$   XX  +   &&&&&&&&&&&& OOOOOOOO",
"OOOO oo  OOOOOOOO      $$$$$$$$$$$$  XX ++$       &&&&& OOOOOOOO",
"OOOO o ..        . X $$$$$$$$$$$$$$$$ XX +$$$  ..  &&&& OOOOOOOO",
"OO  oo .........  X $$$$$$$$$$$$$$$$$$  X +$$$$  -- &&& OOOOOOOO",
"  ooo ......... XX $$$$$$$########$$$$$$ X +$$$$  --     OOOOOOO",
"ooooo ........ XX $$$$$####$$$$$$$$$$$$$$ X +$$$$  -- oo        ",
"  ooo ........ X $$$####$$$$$$$$$$$$$$$$$ XX +$$$$$     ....... ",
".. oo ....... X $$$#$$$$$$$$$$$$$$$$$$$$$$ XX +$$$$  ...........",
"... o ...... X #$$#$$$$$$$$$$$+++++++$$$$$$ X ++$$$$ ...........",
".... o ..... X #$##$$$$$$$+++++######+++#$$ XX +$$    ..........",
".....  .... X #$$#$$$$++++#####$$$$$$###$$$$ X +  ;;; ..........",
"..... o ... X #$#$$$++####$$$$$$$$$$$$$$$$$$ X  *;;;;; .........",
"..... o .. X #$$$$$++#$$$$$$$$$$$$$$$$$$$$$$$ X &;;;;;; ........",
"..... oo   X #$$$$++#$$$$$$$$$$$$$$$$$$$$$$$  X &;;; ;; ........",
"..... oo   X #$$$++#$$$$$$$$$$$$$$$$$$$$$$$$  XX &;; :; ........",
".....   $$$  ###++#$$$$$$$$$$$$$$$$$$$$$$$$ ; XX &;; ::; .......",
"....  $$$+#$$  #+#$$$$$$$$$$$$$$$$$$$$$$$$ ;; XX *;; ::; .......",
"... o $$$+#$$$    #$$$$$$$$$$$$$$$$$$$$$$$ ;; XX *;; ==; .......",
".. o $$$$++###$$$$ #$$$$$$$$$$++++++++#$$$ ;;; XX &;; =;; ......",
"  oo $#$$$++++##$$ #$$++++++++########$$$ ;;;; XX &;;; ;; ..... ",
"ooo $$+##$$$$$++$$$ +++#######$$$$$$$$$$$ ;;;; XX *;;;;;;      o",
"ooo $$+++#####$$$$$ ####$$$$$$$$$$$$$$$$$ ;;;; XX &;;;;;;     oo",
"ooo $$$$++++++++$$$ ##$$$$$$$$$$$$$$$$$$$ ;;;; XX &;;;;;;  -- oo",
"o   $$$$$$$$$$$$$$$ #$$$$$$$$$$$$$$$$$$$$ ;;;; XX &;;;;;; --- oo",
" .. $$$$$$$$$$$$$$$ #$$$$$$$$$$$$$$$$$$$$ ;;;; XX &;;;;;; --- o ",
"... $$$$++++++++$$$ ##$$$$$$$$$$$$$$$$$$$ ;;;; XX &;;;;;; ---  .",
"... $$+++#####$$$$$ ####$$$$$$$$$$$$$$$$$ ;;;; XX &;;;;;; --- ..",
"... $$+##$$$$$++$$$ +++#######$$$$$$$$$$$ ;;;; XX &;;;;;;  - ...",
".... $#$$$++++##$$ #$$++++++++########$$$ ;;;; XX &;;; ;;   ....",
".... $$$$++###$$$$ #$$$$$$$$$$++++++++#$$$ ;;; XX &;; =;; o ....",
"..... $$$+#$$$    #$$$$$$$$$$$$$$$$$$$$$$$ ;; XX &;; ==; .  ....",
"..... $$$+#$$  #+#$$$$$$$$$$$$$$$$$$$$$$$$ ;; XX &;; ::; .. ....",
"......  $$$  ###++#$$$$$$$$$$$$$$$$$$$$$$$$ ; XX &;; ::; ..  ...",
"........   X #$$$++#$$$$$$$$$$$$$$$$$$$$$$$$  XX *;; :; ....  ..",
".......... X #$$$$++#$$$$$$$$$$$$$$$$$$$$$$$  X &&;; ;; ..... ..",
".......... X #$$$$$++#$$$$$$$$$$$$$$$$$$$$$$$ X &;;;;;; .....  .",
" .......... X #$#$$$++####$$$$$$$$$$$$$$$$$$ X  &;;;;; ...... o ",
"o    ...... X #$$#$$$$++++#####$$$$$$###$$$$ X +  ;;; ....... oo",
"ooooo        X #$##$$$$$$$+++++######+++#$$ XX +$$    ...... ooo",
"  ooooo ---  X #$$#$$$$$$$$$$$+++++++$$$$$$ X ++$$$$ ......     ",
"OO  ooo ----- X $$$#$$$$$$$$$$$$$$$$$$$$$$ XX +$$$$  ....  OOOOO",
"OOOO oo  ---   X $$$####$$$$$$$$$$$$$$$$$ XX +$$$$$ ....  OOOOOO",
"OOOOO          XX $$$$$####$$$$$$$$$$$$$$ X +$$$$  ...  OOOOOOOO",
"OOOOOO ........ XX $$$$$$$########$$$$$$ X +$$$$       OOOOOOOOO",
"OOOOOO ....   ..  X $$$$$$$$$$$$$$$$$$  X +$$$$ OOOOO  OOOOOOOOO",
"OOOOOO ... &&  ... X $$$$$$$$$$$$$$$$ XX +$$$   OOOOO  OOOOOOOOO",
"OOOOO .... &&&& ...    $$$$$$$$$$$$  XX ++$   OOOOOOO o OOOOOOOO",
"OOOO ..... &&&&&          $$$$$$   XX  +   OOOOOOOOOO oo OOOOOOO",
"OO  ...... &&&&&&&&&&&&                  O OOOOOOOOOO ooo   OOOO",
"  ........ &&&&&&&&&&&&&&&                 OOOOOOOOO   oooo     ",
"...........   &&&&&&&&&&&&&   oooo ---  OOO OOOOOOOO OO ooo ....",
"..............    &&&&&&   -- oooo ---  OOO OOOOOOOO OOO ooo ...",
"..................        --- oooo ---  OOOO  OOOO  OOOO ooo  ..",
"....................... o  --  ooo ---  OOOOOO    OOOOOO ooooo .",
" ....................  ooo --- ooo  --  OOOOOOOOOOOOOOO ooooooo ",
"o    ............    ooooo     ooooo  oo   OOOOOOOOO   ooooooooo"
};
