/* XPM */
static char *ca48acb2707f48b9f74a4994b43ac43e5fTHsahPsDoxPgAk[] = {
/* columns rows colors chars-per-pixel */
"64 64 14 1 ",
"  c black",
". c #374550",
"X c #FF0100",
"o c #835015",
"O c #8C762E",
"+ c #C65D13",
"@ c #D46517",
"# c #E26C19",
"$ c #DFA376",
"% c #E1A377",
"& c #2BA3E9",
"* c #CFBE85",
"= c #E3AA83",
"- c #FFFEFF",
/* pixels */
"OOOO   OOOOOOOOOOOOOOOOOO *** o  ..................  oo OOOOOOOO",
"OOOO .   OOOOOOOOOOOOOO  ****  ...................... o OOOOOOOO",
"OOOO .. o   OOOOOOOO   o **** ........................  OOOOOOOO",
"OOO ... oooo          oo   *        ...................  OOOOOOO",
"OO .... oo  ..........  oo  ########  ..................  OOOOOO",
"O .....   ..............  ############  ................ o OOOOO",
" .....  ............... ###@++####++@### ............... oo     ",
".      ................ ####@+####+@#### ...............   .....",
"... o ................ #####@++##++@##### .............. .......",
".... ................. #+++##@+##+@##+++# ............. ........",
".... ...............   #@@++#@+##+@#++@@#   .........     ......",
".... .............  XXX ##@+#@+##+@#+@## XXX  ...... $$$$$ .....",
"....   .........  XX    ##@+#@+##+@#+@##    XX  ...  $$$$$ .....",
"... ** ........ XX  @@@@ #@+#@+##+@#+@# @@@@  XX   o  $$$$ .....",
".  **** .....  X  @@###@  #@+#+##+#+@#  @###@@  X  oo $$$$$ ....",
" O **** .... XX @@#####@@ #@+#+##+#+@# @@#####@@ XX  O $$$$     ",
"OO **** ... XX ####@###++ ############ ++###@#### XX OO $$$ OOOO",
"OO *** o  . X ###@@###++@ ############ @++###@@### X OO $$$ OOOO",
"OO         X ###@@###++@#@  ########  @#@++###@@### X O $$$$ OOO",
"OO   OOOO X ###@####++@###@@        @@###@++####@### X  $$$$ OOO",
"O OOOOOOO  ###@####++@######+@@@@@@+######@++####@###   $$$$ OOO",
"O OOOOOO  ####@####+@#######+@@##@@+#######@+####@####  $$$$ OOO",
" OOOOOO   ####@###+@#######++@####@++#######@+###@####  $$$$ OOO",
" OOOOOO  ####@@###+@#######+@@####@@+#######@+###@@####  $$$    ",
"     O   ####@####+@#######+@######@+#######@+####@####  $$ oooo",
"ooo      ####@####+@#######+@######@+#######@+####@####  $$ oooo",
"oo ***  ####@@###+@########+@######@+########@+###@@####  $   oo",
"oo ***  ####@####+@########+@######@+########@+####@####   ** oo",
"oo ***  ####@####+@########+@######@+########@+####@####   ** oo",
"oo ***  ####@####+@########+@######@+########@+####@####   **  o",
"oo  **  ####@###++@#######+@########@+#######@++###@####   *** o",
"oooo    ####@###+@########+@########@+########@+###@####       o",
"oooooo   ###@###+@########+@########@+########@+###@###   oo    ",
" ooo     ###@###+@########+@########@+########@+###@###     OOOO",
"O o .    #######+@########+@########@+########@+#######   OOOOOO",
"OO ..   X ######+@########+@########@+########@+###### X  OOOOOO",
"OO  .   X ######+@########+@########@+########@+###### X  OOOOOO",
"OOO . $  X ######+@#######+@########@+#######@+###### X  OOOOOOO",
"OOO   $  XX #####+@#######@##########@#######@+##### XX  OOOOOOO",
"OOO  $$ + X #####+@##########################@+##### X + OOOOOOO",
"OOO  $$$ + X ####@############################@#### X +  OOOOOOO",
"OO . $$$ ++ X  ############          ############  X ++  OOOOOOO",
"OO   $$$ ##+ XX ########   ==========   ######## XX +## . OOOOOO",
"  .  $$$$ ##+ XX  ##### ================ #####  XX +## ...   OOO",
" ... $$$$ ###+ XXX  #  ==================  #  XXX +### .....    ",
" ... $$$$  ###+  XXX      ============      XXX  +###  ...... oo",
" ... $$$$  ####++   XXXXXX            XXXXXX   ++#### ....... oo",
" ... $$$$   ####+++   XXXXXXXXXXXXXXXXXXXX   +++####  ....... oo",
" ...  $$$ OO ##### %$$    XXXXXXXXXXXX    $$$ ##### ......... oo",
"  .   $$$ OO  #### ===$$%%            $$$%$== ####  ........ ooo",
"o .   $$$$ OO ### ========$$%$$$$$$$$$======== ### ......... ooo",
"o  o  $$$$$ OO  # ============================ #  ......... oooo",
"oooo O $$$$$ OO   ===     ============     ===   .......... oooo",
"o      $$$$$   oo  ===---& ========== &---===  ..........  ooooo",
"o .... $$$$$ oooo . ===--&& ======== &&--=== ........... o     o",
" ......                ==================        ....     ..... ",
". ......... OOOOOOOO      ============   OOOOO       oo ........",
".. ....... OOOOOOOOOOOO  .            OOOOOOOOOOOOOO o .........",
".. ....... OOOOOOOOOOOOOO ........ o OOOOOOOOOOOOOOOO  .........",
". ....... OOOOOOOOOOOOOOO .....   oo OOOOOOOOOOOOOOOO  .........",
" ....    OOOOOOOOOOOOOOOO      ooooo OOOOOOOOOOOOOOOO  ....     ",
"O     OOOOOOOOOOOOOOOOOOOO    ooooooo OOOOOOOOOOOOOO oo .. OOOOO",
"OO oo OOOOOOOOOOOOOOOOOOOO ** ooooooo          OO   oooo  OOOOOO",
"OOO oo OOOOOOOOOOOOOOOOOO *** ooo    ....          ooooo OOOOOOO"
};
