/* XPM */
static char *_d506069638a419ed5f568a9164768d0CMiZPs9SVazIcA4I[] = {
/* columns rows colors chars-per-pixel */
"64 64 14 1 ",
"  c black",
". c #374550",
"X c #FF0100",
"o c #825115",
"O c #8C762F",
"+ c #C65C13",
"@ c #D56617",
"# c #E36C19",
"$ c #DFA376",
"% c #E1A377",
"& c #2BA3E9",
"* c #CFBE85",
"= c #E2AA83",
"- c #FFFEFE",
/* pixels */
"ooooooooo        ooooooooooo    ooooooo       ooooooooooo       ",
"  ooooo  OOOOOOOO  ooooooo  OOOO ooo   .......   oooooo  OOOOOOO",
"OO  oo OOOOOOOOOOOO ooooo OOOOOOO o .............  oo  OOOOOOOOO",
"OOOO  OOOOOOOOOOOOOO ooo OOOOOOOOO ................  OOOOOOOOOOO",
"OOOO OOOOOOOOOOO          OOOOOOOO  ...............  OOOOOOOOOOO",
"OOOO  OOOOOO    $$$$$$$$$     OOOOO ............... OOOOOOOOOOOO",
"OOOO  OOO   $$$$$$$$$$$$$$$             ........... OOOOOOOOOOOO",
"OOOOO OO $$$$$$$$$$$$$$$                  ......... OOOOOOOOOOOO",
"OOOOO    $$$$$$$$$$$$   +  XX   ######     ........ OOOOOOOOOOOO",
"OOOO oo  $$$$$       #++ XX  ############    ......  OOOOOOOOOOO",
"OOOO o . $$$$      ###+ XX ################ X ...  * OOOOOOOOOOO",
"OO  oo . $$$ ... ####+ X  ################## X   ****  OOOOOOOOO",
"  ooo ...   ..  ####+ X ######@@@@@@@@####### XX **** o  OOOOOOO",
"ooooo .......  ####+ X ##############@@@@##### XX *** oo        ",
"  ooo ...... #####+ XX #################@@@@### X **    ....... ",
".. oo ...... ####+ XX ######################@### X   ...........",
"... o ..... ####++ X ######+++++++###########@##@ X ............",
".... o ...    ##+ XX ##@+++@@@@@@+++++#######@@#@ X ............",
".....  ... ===  + X ####@@@######@@@@@++++####@##@ X ...........",
"..... o . =====%  X ##################@@@@++###@#@ X ...........",
"..... o  ======$ X #######################@++#####@ X ..........",
"..... oo == ===$ X  #######################@++####@ X ..........",
"..... oo =- ==$ XX  ########################@++###@ X   ........",
"..... o =-- ==$ XX = ########################@++@@@  ###  ......",
".... o  =-- ==% XX == ########################@+@  ##@+### .....",
"... o O =&& ==% XX == #######################@    ###@+### .....",
".. o O ==& ==$ XX === ###@++++++++##########@ ####@@@++#### ....",
"  oo O == ===$ XX ==== ###@@@@@@@@++++++++##@ ##@@++++###@# ... ",
"oooo O ======% XX ==== ###########@@@@@@@+++ ###++#####@@+##   o",
"ooooo  ======$ XX ==== #################@@@@ #####@@@@@+++##  oo",
"ooooo  ======$ XX ==== ###################@@ ###++++++++####  oo",
"o    . ======$ XX ==== ####################@ ###############  oo",
" ..... ======$ XX ==== ####################@ ###############  o ",
"...... ======$ XX ==== ###################@@ ###++++++++####   .",
"...... ======$ XX ==== #################@@@@ #####@@@@@+++##  ..",
"...... ======$ XX ==== ###########@@@@@@@+++ ###++#####@@+## ...",
"...... == ===$ XX ==== ###@@@@@@@@++++++++##@ ##@@++++###@# ....",
"...... ==& ==$ XX === ###@++++++++##########@ ####@@@++#### ....",
"....... =&& ==$ XX == #######################@    ###@+###  ....",
"....... =-- ==$ XX == ########################@+@  ##@+###  ....",
"....... =-- ==$ XX = ########################@++@@@  ###  .  ...",
"........ =- ==% XX  ########################@++###@ X   ....  ..",
"........ == ==$$ X  #######################@++####@ X ....... ..",
"........ ======$ X #######################@++#####@ X .......  .",
" ........ =====$  X ##################@@@@++###@#@ X ........ o ",
"o    ..... ===  + X ####@@@######@@@@@++++####@##@ X ........ oo",
"ooooo         ##+ XX ##@+++@@@@@@+++++#######@@#@ X ........ ooo",
"  ooooo *** ####++ X ######+++++++###########@##@ X .......     ",
"OO  ooo ***  ####+ XX ######################@### X ......  OOOOO",
"OOOO oo  *** #####+ XX #################@@@@### X ......  OOOOOO",
"OOOOO          ####+ X ##############@@@@##### XX ....  OOOOOOOO",
"OOOOOO .......  ####+ X ######@@@@@@@@####### XX       OOOOOOOOO",
"OOOOOO ......... ####+ X  ################## X  OO     OOOOOOOOO",
"OOOOOO .........   ###+ XX ################ X OOO  $$  OOOOOOOOO",
"OOOOO ............   #++ XX  ############    OOO $$$$ o OOOOOOOO",
"OOOO ................   +  XX   ######          $$$$$ oo OOOOOOO",
"OO  ...................                  $$$$$$$$$$$$ ooo   OOOO",
"  ........................            $$$$$$$$$$$$$$$  oooo     ",
"..........................    oooo   $$$$$$$$$$$$$   OO ooo ....",
"......................... *** oooo **   $$$$$$    OO OOO ooo ...",
"........................  *** oooo ***        OOOO  OOOO ooo  ..",
"....................... o  **  ooo ***  OOOOOO    OOOOOO ooooo .",
" ....................  ooo *** ooo  **  OOOOOOOOOOOOOOO ooooooo ",
"o    ............    ooooo     ooooo  oo   OOOOOOOOO   ooooooooo"
};
