/* XPM */
static char *_b88d1e59e0749c7c9940357104f635fRxdePQ2it0fzo7vw[] = {
/* columns rows colors chars-per-pixel */
"64 64 14 1 ",
"  c black",
". c #374550",
"X c #FE0101",
"o c #825115",
"O c #8C762E",
"+ c #C65D12",
"@ c #D46617",
"# c #E26C19",
"$ c #DFA377",
"% c #E0A276",
"& c #2BA2E9",
"* c #CFBE85",
"= c #E2AB83",
"- c white",
/* pixels */
"ooooooo       ooooooooooo       ooooooooo        ooooooooooo    ",
" ooo   .......   oooooo  OOOOOOO  ooooo  OOOOOOOO  ooooooo  OOOO",
"O o .............  oo  OOOOOOOOOOO  oo OOOOOOOOOOOO ooooo OOOOOO",
"OO ................  OOOOOOO          OOOOOOOOOOOOOO ooo OOOOOOO",
"OO  ...............  OOOOO  ########  OOOOOOOOOOOOOOO o OOOOOOOO",
"OOO ............... OOOO  ############  OOOOOOOOOOOOO   OOOOOOOO",
"OOO ............... OOO ###@++####++@### OOOOOOOOOOOO . OOOOOOOO",
"OOO ............... OOO ####@+####+@#### OOOOOOOOOOO .. OOOOOOOO",
"OOO ............... OO #####@++##++@##### OOOOOOOOO ... OOOOOOOO",
"OO ................  O #+++##@+##+@##+++# OOOOOOO  ..... OOOOOOO",
"OO  .............  *   #@@++#@+##+@#++@@#        ........ OOOOOO",
"  .    .......   *  XXX ##@+#@+##+@#+@## XXX  ............   OOO",
" ... oo       **  XX    ##@+#@+##+@#+@##    XX  ............    ",
" ... oooooooo * XX  @@@@ #@+#@+##+@#+@# @@@@  XX ............ oo",
" ... oooooooo  X  @@###@  #@+#+##+#+@#  @###@@  X  .......... oo",
" ... oo      XX @@#####@@ #@+#+##+#+@# @@#####@@ XX ......... oo",
" ...   OOOO XX ####@###++ ############ ++###@#### XX ........ oo",
"  .  OOOOOO X ###@@###++@ ############ @++###@@### X ....... ooo",
"o .  OOOOO X ###@@###++@#@  ########  @#@++###@@### X ...... ooo",
"o  o OOOO X ###@####++@###@@        @@###@++####@### X .... oooo",
"oooo OOOO  ###@####++@######+@@@@@@+######@++####@###  .... oooo",
"o      O  ####@####+@#######+@@##@@+#######@+####@####  .  ooooo",
"o ....    ####@###+@#######++@####@++#######@+###@####   o     o",
" ......  ####@@###+@#######+@@####@@+#######@+###@@####   ..... ",
". .....  ####@####+@#######+@######@+#######@+####@####  .......",
".. ....  ####@####+@#######+@######@+#######@+####@####  .......",
".. ...  ####@@###+@########+@######@+########@+###@@####  ......",
". ....  ####@####+@########+@######@+########@+####@####  ......",
" ....   ####@####+@########+@######@+########@+####@####  .     ",
"O       ####@####+@########+@######@+########@+####@####   OOOOO",
"OO oo   ####@###++@#######+@########@+#######@++###@####  OOOOOO",
"OOO oo  ####@###+@########+@########@+########@+###@####  OOOOOO",
"OOOO     ###@###+@########+@########@+########@+###@###   OOOOOO",
"OOOO .   ###@###+@########+@########@+########@+###@###  OOOOOOO",
"OOOO ..  #######+@########+@########@+########@+#######  OOOOOOO",
"OOO ... X ######+@########+@########@+########@+###### X OOOOOOO",
"OO .... X ######+@########+@########@+########@+###### X  OOOOOO",
"O .....  X ######+@#######+@########@+#######@+###### X  o OOOOO",
" .....   XX #####+@#######@##########@#######@+##### XX  oo     ",
".       + X #####+@##########################@+##### X +   .....",
"... o .. + X ####@############################@#### X +  .......",
".... ... ++ X  ############          ############  X ++ ........",
".... ... ##+ XX ########   ==========   ######## XX +## ........",
".... .... ##+ XX  ##### ================ #####  XX +##  ........",
"....   .. ###+ XXX  #  ==================  #  XXX +###  ........",
"... ** ... ###+  XXX      ============      XXX  +### o   ......",
".  **** .. ####++   XXXXXX            XXXXXX   ++####  OO  .....",
" O **** ... ####+++   XXXXXXXXXXXXXXXXXXXX   +++#### OOOOOO     ",
"OO **** .... ##### $$$    XXXXXXXXXXXX    $$% ##### OOOOOOOOOOOO",
"OO *** o  ..  #### ==$%$$$            %%$$=== ####  OOOOOOOOOOOO",
"OO          . ### ========$$$$$$$$$%$$======== ###  OOOOOOOOOOOO",
"OO   OOOOO      # ============================ #     OOOOOOOOOOO",
"O OOOOOOOO OOOOO  ===     ============     ===  ....   OOOOOOOOO",
"O OOOOOOOO OOOOOO  ===---& ========== &---===  ......   OOOOOOOO",
" OOOOOOOOO OOOOOOOO ===--&& ======== &&--=== ..........   OOOOOO",
" OOOOOOOOO OOOOOOOOO   ==================   .............       ",
"     OOOOO OOOOOOOOOO o   ============   ................. ooooo",
"ooo        OOOOOOOOO   ooo            .................... ooooo",
"oo ***  OOO OOOOOOOO OO ooo ..............................    oo",
"oo ***  OOO OOOOOOOO OOO ooo ............................ *** oo",
"oo ***  OOOO  OOOO  OOOO ooo  ..........................  *** oo",
"oo ***  OOOOOO    OOOOOO ooooo ........................ o  **  o",
"oo  **  OOOOOOOOOOOOOOO ooooooo  ....................  ooo *** o",
"oooo  oo   OOOOOOOOO   oooooooooo    ............    ooooo     o"
};
