/* XPM */
static char *_4df9228a28f4422dfe29e3ca2178494rBAzG9AZZk8LKtm7[] = {
/* columns rows colors chars-per-pixel */
"64 64 14 1 ",
"  c black",
". c #374550",
"X c #FF0100",
"o c #825015",
"O c #8C762E",
"+ c #C65C12",
"@ c #D46617",
"# c #E26D19",
"$ c #DEA277",
"% c #E0A276",
"& c #2BA2E9",
"* c #CFBE85",
"= c #E2AB82",
"- c white",
/* pixels */
"OOOO   OOOOOOOOOOOOOOOOOO *** o  ..................  oo OOOOOOOO",
"OOOO .   OOOOOOOOOOOOOO  ****  ...................... o OOOOOOOO",
"OOOO .. o   OOOOOOOO   o **** ........................  OOOOOOOO",
"OOO ... oooo          oo   * ..........................  OOOOOOO",
"OO .... oo  ..........  oo  ............................  OOOOOO",
"O .....   ..............  o ............................ o OOOOO",
" .....  ..................            .................. oo     ",
".      ................   ============   ...............   .....",
"... o ..............   ==================   ........     .......",
".... .............. ===--&& ======== &&--=== ...... $$$$$ ......",
".... ............  ===---& ========== &---===  .... $$$$$ ......",
".... ..........   ===     ============     ===  ... $$$$$ ......",
"....   .......  # ============================ #  .  $$$$$ .....",
"... ** ...... ### ========$$$$$$$$$%$$======== ### oo $$$$ .....",
".  **** ....  #### ==$%$$$            %%$$=== ####  o  $$$ .....",
" O **** .... ##### $$$    XXXXXXXXXXXX    $$% #####  O $$$      ",
"OO **** ..  ####+++   XXXXXXXXXXXXXXXXXXXX   +++#### O $$$$ OOOO",
"OO *** o   ####++   XXXXXX            XXXXXX   ++####  $$$$ OOOO",
"OO         ###+  XXX      ============      XXX  +###  $$$$ OOOO",
"OO   OOOO ###+ XXX  #  ==================  #  XXX +### $$$$ OOOO",
"O OOOOOOO ##+ XX  ##### ================ #####  XX +## $$$$ OOOO",
"O OOOOOO ##+ XX ########   ==========   ######## XX +## $$$ OOOO",
" OOOOOOO ++ X  ############          ############  X ++ $$$ OOOO",
" OOOOOO  + X ####@############################@#### X + $$$     ",
"     OO + X #####+@##########################@+##### X + $$ oooo",
"ooo      XX #####+@#######@##########@#######@+##### XX  $  oooo",
"oo ***   X ######+@#######+@########@+#######@+###### X  $    oo",
"oo ***  X ######+@########+@########@+########@+###### X   ** oo",
"oo ***  X ######+@########+@########@+########@+###### X   ** oo",
"oo ***   #######+@########+@########@+########@+#######    **  o",
"oo  **   ###@###+@########+@########@+########@+###@###    *** o",
"oooo     ###@###+@########+@########@+########@+###@###        o",
"oooooo  ####@###+@########+@########@+########@+###@####  oo    ",
" ooo    ####@###++@#######+@########@+#######@++###@####    OOOO",
"O o ..  ####@####+@########+@######@+########@+####@####  OOOOOO",
"OO ..   ####@####+@########+@######@+########@+####@####  OOOOOO",
"OO  .   ####@####+@########+@######@+########@+####@####  OOOOOO",
"OOO  $  ####@@###+@########+@######@+########@+###@@####  OOOOOO",
"OOO  $$  ####@####+@#######+@######@+#######@+####@####   OOOOOO",
"OOO  $$  ####@####+@#######+@######@+#######@+####@####   OOOOOO",
"OOO $$$  ####@@###+@#######+@@####@@+#######@+###@@####  OOOOOOO",
"OO  $$$$  ####@###+@#######++@####@++#######@+###@####   OOOOOOO",
"OO  $$$$  ####@####+@#######+@@##@@+#######@+####@####  . OOOOOO",
"  . $$$$   ###@####++@######+@@@@@@+######@++####@###  ...   OOO",
" .. $$$$  X ###@####++@###@@        @@###@++####@### X .....    ",
" .. $$$$ o X ###@@###++@#@  ########  @#@++###@@### X ....... oo",
" ... $$$ oo X ###@@###++@ ############ @++###@@### X ........ oo",
" ... $$$    XX ####@###++ ############ ++###@#### XX ........ oo",
" ... $$$$ OO XX @@#####@@ #@+#+##+#+@# @@#####@@ XX ......... oo",
"  .  $$$$$ OO  X  @@###@  #@+#+##+#+@#  @###@@  X  ......... ooo",
"o .   $$$$  OOO XX  @@@@ #@+#@+##+@#+@# @@@@  XX ........... ooo",
"o  o  $$$$$ OOO   XX    ##@+#@+##+@#+@##    XX  ........... oooo",
"oooo  $$$$$ OOO o   XXX ##@+#@+##+@#+@## XXX  ............. oooo",
"o          OO  oo ..   #@@++#@+##+@#++@@#   .............  ooooo",
"o ....       oooo .... #+++##@+##+@##+++#  ............. o     o",
" ...........        .. #####@++##++@#####        ....     ..... ",
". ......... OOOOOOOO    ####@+####+@#### OOOOO       oo ........",
".. ....... OOOOOOOOOOOO ###@++####++@### OOOOOOOOOOO o .........",
".. ....... OOOOOOOOOOOOO  ############  OOOOOOOOOOOOO  .........",
". ....... OOOOOOOOOOOOOOO   ########  OOOOOOOOOOOOOOO  .........",
" ....    OOOOOOOOOOOOOOOO            OOOOOOOOOOOOOOOO  ....     ",
"O     OOOOOOOOOOOOOOOOOOOO    ooooooo OOOOOOOOOOOOOO oo .. OOOOO",
"OO oo OOOOOOOOOOOOOOOOOOOO ** ooooooo          OO   oooo  OOOOOO",
"OOO oo OOOOOOOOOOOOOOOOOO *** ooo    ....          ooooo OOOOOOO"
};
