/* XPM */
static char *_c8562f98307478cbd4b8236dc385385Us7bNxTVesORSgzV[] = {
/* columns rows colors chars-per-pixel */
"64 64 14 1 ",
"  c black",
". c #374550",
"X c #FF0100",
"o c #825115",
"O c #8C762E",
"+ c #C65D12",
"@ c #D56617",
"# c #E26D18",
"$ c #DFA377",
"% c #E0A276",
"& c #2AA2E8",
"* c #CFBE85",
"= c #E3AA83",
"- c #FFFEFF",
/* pixels */
"ooooooo       ooooooooooo       ooooooooo        ooooooooooo    ",
" ooo   .......   oooooo  OOOOOOO  ooooo  OOOOOOOO  ooooooo  OOOO",
"O o .............  oo  OOOOOOOOOOO  oo OOOOOOOOOOOO ooooo OOOOOO",
"OO ................  OOOOOOOOOOOOOOO  OOOOOOOOOOOOOO ooo OOOOOOO",
"OO  ...............  OOOOOOOOOOOOOOO OOOOOOOOOOOOOOOO o OOOOOOOO",
"OOO ............... OOOOOOOOOOOOOOOO  OOOOOOOOOOOOOOO   OOOOOOOO",
"OOO ............... OOOOOO            OOOOOOOOOOOOOOO . OOOOOOOO",
"OOO ............... OOO   ============   OOOOOOOOOOO .. OOOOOOOO",
"OOO ...............    ==================   OOOOOOO ... OOOOOOOO",
"OO ................ ===--&& ======== &&--=== OOOO  ..... OOOOOOO",
"OO  .............  ===---& ========== &---===    ........ OOOOOO",
"  .    .......    ===     ============     ===  ..........   OOO",
" ... oo         # ============================ #  ..........    ",
" ... oooooooo ### ========$$%$$$$$$$$$======== ### .......... oo",
" ... ooooooo  #### ===$$%%            $$$%$== ####  ......... oo",
" ... oo      ##### %$$    XXXXXXXXXXXX    $$$ ##### ......... oo",
" ...   OOOO ####+++   XXXXXXXXXXXXXXXXXXXX   +++#### ........ oo",
"  .  OOOOO ####++   XXXXXX            XXXXXX   ++#### ...... ooo",
"o .  OOOOO ###+  XXX      ============      XXX  +### ...... ooo",
"o  o OOOO ###+ XXX  #  ==================  #  XXX +### .... oooo",
"oooo OOOO ##+ XX  ##### ================ #####  XX +## .... oooo",
"o      O ##+ XX ########   ==========   ######## XX +## .  ooooo",
"o ....   ++ X  ############          ############  X ++  o     o",
" ....... + X ####@############################@#### X +   ..... ",
". ..... + X #####+@##########################@+##### X + .......",
".. ....  XX #####+@#######@##########@#######@+##### XX  .......",
".. ....  X ######+@#######+@########@+#######@+###### X  .......",
". ..... X ######+@########+@########@+########@+###### X .......",
" ....   X ######+@########+@########@+########@+###### X ..     ",
"O     O  #######+@########+@########@+########@+#######  . OOOOO",
"OO oo O  ###@###+@########+@########@+########@+###@###   OOOOOO",
"OOO oo   ###@###+@########+@########@+########@+###@###   OOOOOO",
"OOOO    ####@###+@########+@########@+########@+###@####  OOOOOO",
"OOOO .  ####@###++@#######+@########@+#######@++###@####  OOOOOO",
"OOOO .  ####@####+@########+@######@+########@+####@####  OOOOOO",
"OOO ..  ####@####+@########+@######@+########@+####@####  OOOOOO",
"OO ...  ####@####+@########+@######@+########@+####@####  OOOOOO",
"O ....  ####@@###+@########+@######@+########@+###@@####   OOOOO",
" .....   ####@####+@#######+@######@+#######@+####@####  oo     ",
".        ####@####+@#######+@######@+#######@+####@####    .....",
"... o .. ####@@###+@#######+@@####@@+#######@+###@@####  .......",
".... ...  ####@###+@#######++@####@++#######@+###@####  ........",
".... ...  ####@####+@#######+@@##@@+#######@+####@####  ........",
".... ....  ###@####++@######+@@@@@@+######@++####@###   ........",
"....   .. X ###@####++@###@@        @@###@++####@### X  ........",
"... ** ... X ###@@###++@#@  ########  @#@++###@@### X o   ......",
".  **** ... X ###@@###++@ ############ @++###@@### X   OO  .....",
" O **** ... XX ####@###++ ############ ++###@#### XX OOOOOO     ",
"OO **** .... XX @@#####@@ #@+#+##+#+@# @@#####@@ XX OOOOOOOOOOOO",
"OO *** o  ...  X  @@###@  #@+#+##+#+@#  @###@@  X   OOOOOOOOOOOO",
"OO          ... XX  @@@@ #@+#@+##+@#+@# @@@@  XX oo OOOOOOOOOOOO",
"OO   OOOOO        XX    ##@+#@+##+@#+@##    XX  .    OOOOOOOOOOO",
"O OOOOOOOO OOOOOOO  XXX ##@+#@+##+@#+@## XXX  ......   OOOOOOOOO",
"O OOOOOOOO OOOOOOOOO   #@@++#@+##+@#++@@#   .........   OOOOOOOO",
" OOOOOOOOO OOOOOOOOOO  #+++##@+##+@##+++# .............   OOOOOO",
" OOOOOOOOO OOOOOOOOOO  #####@++##++@##### ...............       ",
"     OOOOO OOOOOOOOOO o ####@+####+@#### ................. ooooo",
"ooo        OOOOOOOOO    ###@++####++@### ................. ooooo",
"oo ***  OOO OOOOOOOO OO   ############  ..................    oo",
"oo ***  OOO OOOOOOOO OOO o  ########  ................... *** oo",
"oo ***  OOOO  OOOO  OOOO ooo        ....................  *** oo",
"oo ***  OOOOOO    OOOOOO ooooo ........................ o  **  o",
"oo  **  OOOOOOOOOOOOOOO ooooooo  ....................  ooo *** o",
"oooo  oo   OOOOOOOOO   oooooooooo    ............    ooooo     o"
};
