/* XPM */
static char *e578cda5e025498ef5f1b6523f7827ff4cLHpT9NtUsTMcH3[] = {
/* columns rows colors chars-per-pixel */
"64 64 15 1 ",
"  c black",
". c #070101",
"X c #2F1A14",
"o c #374550",
"O c #825014",
"+ c #8C762E",
"@ c #bcbcbc",
"# c #F78207",
"$ c #FFFFFF",
"% c #EEEEEE",
"& c #FFD634",
"* c #FFD538",
"= c #FFD13D",
"- c #F9D548",
"; c #CFBE85",
/* pixels */
"OOOOOOO       OOOOOOOOOOO       OOOOOO OO        OOOOOOOOOOO    ",
" OOO   ooooooo   OOOOOO  +++++++  OOO    ++++++++  OOOOOOO  ++++",
"+ O ooooooooooooo  OO  +++++++++++  O % +++++++++++ OOOOO ++++++",
"++ oooooooooooooooo  +++++++++++++++ %% ++++++++++++ OOO +++++++",
"++  ooooooooooooooo  +  ++++++++++  %%% +++++++++++++ O ++++++++",
"+++ ooooooooooooooo   $$   ++++++ %%%%% +++++++++++++   ++++++++",
"+++ ooooooooooooooo  $$$$$$   +  %%%%%%$ ++++++++++++ o ++++++++",
"+++ oooooooooooooo  $$$$$$$$$$ $%%%%%%%$ +++++++++++ oo ++++++++",
"+++ ooooo ooooooo  $$$%%%%%$$$$$%%%%%%%$ ++++++++++ ooo ++++++++",
"+  ooooo % ooooo  $$%%%%%%%%%%%$%%%%$$$$$    ++++  ooooo +++++++",
" %% .ooo %% ooo  $$$%%%%%%%%%%%$$$%$$$$$$%%%%    oooooooo ++++++",
"  %%%  oo %% o  $$%%%%%%%%%%%%%$$$$$$$$%%%%%%%%  ooooooooo   +++",
" o %%%     %% ; $$%%%%%%%%%%%%%$$$$$$$%%%%%%%%%%  oooooooooo    ",
" oo %%%    %%%  $%%%%%%%%%%%$$%$$$$$$$%%%%%%%%%%% ooooooooooo OO",
" ooo %%%%%%%%%%$$$%%%%%%%%$$$$$$$$$$$$%%%%%%%%%%%% oooooooooo OO",
" ooo  %%%%%%%%%$$$%%%%%%$$$$$$$$$$$$$$$%%&%%%%%%%%$ ooooooooo OO",
" ooo  %%%%%%%%%%$$$%%%%%$$$$$$$$$$$$$$$$%%%%%%%%%%$$ oooooooo OO",
"  o %%%%%%%%%%%%$$$$%%%$$$$$$$$  $$$$$$$$$%%%%%%%$$$ ooooooo OOO",
"O  %%%%%%%%%%%%%$$$$%%%$$$$$$$  $  $$$$$$$$%%%%%%$$$ ooooooo OOO",
"O    %%%%%%%%%%$$$$$$$$$$$$$$       $$$$$$$$$$%%%$$$$  oooo OOOO",
"OOOO   %%%%%%%%$$$$$$$$$$$$$   $$$   $$$$$$$$$$$$$$$$$   oo OOOO",
"O        %%%$$$$$$$$$$$$$$$   $$$$$  $$$$$$$$$$$$$$%%%%%%  OOOOO",
"O oooo    $$$$$$$$$$$$$$$$$  $$$$$$$  $$$$$$$$$$$$$%%%%%%%     O",
" ooooooo $$$$$$$$$$$$$$$$$  $$$$$$$$  $$$$$$$$$$$$$%%%%%%% oooo ",
"o ooooo $$$$$$$$$$$$$$$$$   $$$$$$$$$  $$$$$$$$$$$%%%%%%%%%  ooo",
"oo ooo $$$$$$$$$$$$$        $$$$$$$$$$$$$$$$$$$$$$%%%%%%%%%%%% o",
"oo oo $$$%%%%$$$$$$     $$$$$$$$$$$$$$$$$$$$$$$$$$%%%%%%%%%%%   ",
"o ooo $$$%%%%$$$$$   $$$$$$$$$$$$$$$$$$$$$$$$$$$$$$%%%%%%%   ooo",
" ooo $$$%%%%%%$$$$   $$$$$$$$$$$$$$$$$$$$$$$$$$$$$$$$%%%% o     ",
"+    $$%%%%%%%$$$$  $$$$$$$$$$$$$$$$$$$$$$$$$$$$$@@@$$$  o +++++",
"++  $$$%%%%%%%$$$$  $$$$$$$$$$$$$$$$$$$$$$$$$$$$$$@@@@$   ++++++",
"+++ $$$%%%%%%%%$$$   $$$$$$$$$$$$$$$$$$$$$$$$$$$$$$@@@$  +++++++",
"+++ $$%%%%%%%%%$$$   $$$$$$$$$$$$$$$$$$$$$$$$$$$$$$$@@@$ +++++++",
"+++ $$%%%%%%%%%$$$$   $$$$$$$$$$$$$$$$$$$$$$$$$$$$$$@@@$ +++++++",
"+++ $$$%%%%%%%%$$$$   $$$$$$$$$$$$$$$$$$$$$$$$$$$$$$@@@$$ ++++++",
"+++  $$%%%%%%%$$$$$$  $$$$$$$$$$$$$$$$$$$$$$$$$$$$$$@@@$$ ++++++",
"++ o $$%%%%%%%$$$$$$$$$$$$$$$$$$$$$$$$$$$$$$$$$$$$$$@@@$$ ++++++",
"+ ooo $$%%%%%$$$$$$$$$$$$$$$$$$$$$$$$$$$$$$$$$$$$$$$@@@$$  +++++",
" oooo $$$%%%%$$$$$$$$$$$$$$$$$$$$$$$$ $$$$$$$$$$$$$$@@@$$ O     ",
"o     $$$$$$$$$$$$$$$$$$$$$$$$$$$$$$$ $$$$$$$$$$$$$$@@@$$  ooooo",
"ooo O  $$$$$$$$$$$$$$$$$$$$$$$$$$$$$  $$$$$$$$$$$$$$@@@$$ oooooo",
"oooo oo  $$$$$$$$$$$$$$$$$$$ $$$$$$$  $$$$$$$$$$$$$@@@@$$ oooooo",
"oooo oooo $$$$$$$$$$$$$$$$$$  $$$$$   $$$$$$$$$$$$$@@@@$ ooooooo",
"oooo ooooo %$%%$$$$$$$$$$$$$$  $$$$  $$$$$$$$$$$$$@@@@@$ ooooooo",
"oooo   oo %%%%%%$$$$$$$$$$$$$$      $$$$$$$$$$$$$$@@@@$$ ooooooo",
"ooo ;; o  %%%%%$$$$$$$$$$$$$$$$     $$$$$$$$$$$$#@@@@$$   oooooo",
"o  ;;;; %%%%%%$$$$$$$$$$$$$$$$$$$$$$$$$$$$$$$$$$@@@@$$ ++  ooooo",
" + ;;; %%%%%%%%$$$$$$$$$$$$$$$$$$$$$$$$$$$$$$$@@@@@$$ +++++     ",
"++ ;; %%%%%   $$$$$$$%%%$$$$$$$$$$$$$$$$$$$$$@@@@$$$ +++++++++++",
"++ ; %%%   ooo  $$$$%%%%%$$$$$$$$$$$$$$$$$$$$@@$$$  ++++++++++++",
"++  %%      ooo $$$$%%%%%%$$$$$$$$$%%%$$$$$$$$$$  O ++++++++++++",
"++    ++++       $$$%%%%%%%$$$$$$$%%%%%$$$$$$   o    +++++++++++",
"+ ++++++++ +++++ $$$%%%%%%%$$$$$$$$%%%%%     ooooooo   +++++++++",
"+ ++++++++ ++++++ $$$%%%%%%%$$$$$$$%=*%% oooooooooooo   ++++++++",
" +++++++++ ++++++ $$$$%%%%%%$$$$$  %%-%% oooooooooooooo   ++++++",
" +++++++++ +++++++ $$$$%%%$$$$$  +  %%%%  ooooooooooooooo       ",
"     +++++ ++++++++ $$$$$$$$$$ +++   %%%% oooooooooooooooo OOOOO",
"OOO        +++++++++  $$$$$$      ooo %%% oooooooooooooooo OOOOO",
"OO ;;;  +++ ++++++++ +      ooooooooo %%% oooooooooooooooo    OO",
"OO ;;;  +++ ++++++++ +++ OOO ooooooooo %% ooooooooooooooo ;;; OO",
"OO ;;;  ++++  ++++  ++++ OOO  ooooooooo % oooooooooooooo  ;;; OO",
"OO ;;;  ++++++    ++++++ OOOOO oooooooo % ooooooooooooo O  ;;  O",
"OO  ;;  +++++++++++++++ OOOOOOO  ooooooo oooooooooooo  OOO ;;; O",
"OOOO  OO   +++++++++   OOOOOOOOOO    oooooooooooo    OOOOO     O"
};
