/* XPM */
static char *_b36f5cdd29245098978983ca2218c07qfGR6BXcJt2vfrAc[] = {
/* columns rows colors chars-per-pixel */
"64 64 6 1 ",
"  c black",
". c #374550",
"X c #9B5703",
"o c #825115",
"O c #8C762E",
"+ c #CFBE85",
/* pixels */
"ooooooo       ooooooooooo       ooooooooo        ooooooooooo    ",
" ooo   .......   oooooo  OOOOOOO  ooooo  OOOOOOOO  ooooooo  OOOO",
"O o .............  oo  OOO             OOOOOOOOOOOO ooooo OOOOOO",
"OO ................  O    XXXXXXXXXXXX    OOOOOOOOOO ooo OOOOOOO",
"OO  ...............     XXXXXXXXXXXXXXXXXX  OOOOOOOOO o OOOOOOOO",
"OOO ............... O XXXXXXXXXXXXXXXXXXXXXX  OOOOOOO   OOOOOOOO",
"OOO ...............  XXXXXXXXXXXXXXXXXXXXXXXX   OOOOO . OOOOOOOO",
"OOO .............    XXXXXXXXXXXXXXXXXXXXXX   XX OOO .. OOOOOOOO",
"OOO ............  XXXXXXXXXXXXXXXXXXXXXXXXX XXXXX   ... OOOOOOOO",
"OO ............  XXXXXXXXXXXXXXXXXXXXXXXXXX XXXXXXX .... OOOOOOO",
"OO  ..........  XXXXXXXXX  XXXXXXXXXXXXXXXX XXXXXXXX .... OOOOOO",
"  .    ....... XXXXXXXXXXX   XXXXXXXXXXXXXX XXXXXXXXX ....   OOO",
" ... oo        XXXXXXXXXXXXX XXXXXXXXXXXXXX XXXXXXXXXX .....    ",
" ... oooooo   XXXXXXXXXXXXXX  XXXXXXXXXXX   XXXXXXXXXXX ..... oo",
" ... ooooo  XXXXXXXXXXXXXXXXX XXXXXXXXX   XXXXXXXXXXXXX ..... oo",
" ... oo    XXXXXXXXXXXXXXXXXX  XXXXXX  XXXXXXXXXXXXXXXXX .... oo",
" ...     XXXXXXXXXXXXXXXXXXXXX XXXXXX XXXXXXXXXXXXXXXXXXX ... oo",
"  .  O  XXXXXXXXXXXXXXXXXXXXXX XXXXX XXXXXXXXXXXXXXXXXXXX .. ooo",
"o .    XXXXXXXXXXXXXXXXXXXXXXX  XXX  XXXXXXXXXXXXXXXXXXXXX . ooo",
"o  o  XXXXXXXXXXXXXXXXXXXXXXXXX XX  XXXXXXXXXXXXXXXXXXXXXX  oooo",
"oooo XXXXXXXXXXXXXXXXXXXXXXXXXX    XXXXXXXXXXXXXXXXXXXXXXXX oooo",
"o    XXXXXXXXXXXXXXXXXXXXXXXXXXX XXXXXXXXXXXXXXXXXXXXXXXXXX oooo",
"o . XXXXXXXXXXXXXXXXXXXXXXXXXXXX XXXXXXXXXXXXXXXXXXXXXXXXXXX   o",
" .. XXXXXXXXXXXXXXXXXXXXXXXXXXXX XXXXXXXXXXXXXXXXXXXXXXXXXXX .. ",
". . XXXXXXXXXXXXXXXXXXXXXXXXXXXX XXXXXXXXXXXXXXXXXXXXXXXXXXX ...",
"..  XXXXXXXXXXXXXXXXXXXXXXXXXXXX XXXXXXXXXXXXXX XXXXXXXXXXXX ...",
".. XXXXXXXXXXXXXXXXXXXXXXXXXXXXX XXXXXXXXXXXXXX XXXXXXXXXXXXX ..",
".  XXXXXXXXXXXXXXXXXXXXXXXXXXXXX XXXXXXXXXXXXXXX  XXXXXXX XXX ..",
" . XXXXXXXXXXXXXXXXXXXXXXXXXXXXX XXXXXXXXXXXXXXXX XXXXXX XXXX   ",
"O  XXXXXXXXXXXXX XXXXXXXXXXXXXXX XXXXXXXXXXXXXXXXX  XX  XXXXX OO",
"OO XXXXXXXXXXXXX XXXXXXXXXXXXXXX XXXXXXXXXXXXXXXXXX   XXXXXXX OO",
"OO XXXXXXXXXXXXXX XXXXXXXXXXXXXX XXXXXXXXXXXXXXXXXX  XXXXXXXX OO",
"OO XXXXXXXXXXXXXX        XXXXXXX XXXXXXXXXXXXXXXXX   XXXXXXXX OO",
"OO XXXXXXXXXXXXXXXXXXXXX   XXXXX XXXXXXXXXXXXXXXXX XX XXXXXXX OO",
"OO XXXXXXXXXXXXXXXXXXX  XX  XXXX XXXXXXXXXXXXXXXX  XX XXXXXXX OO",
"OO XXXXXXXXXXXXXXXXXX  XXXXX XXX XXXXXXXXXXXXXXXX XXX XXXXXXX OO",
"OO XXXXXXXXXXXXXXXXXX XXXXXXX  X XXXXXXXXXXXXXXXXXXXX XXXXXXX OO",
"O  XXXXXXXXXXXXXXXXX  XXXXXXXXX  XXXXXXXXXXXXXXXXXXXXX XXXXXX OO",
" .. XXXXXXXXXXXXXX   XXXXXXXXXXX  XXXXXXXXXXXXXXXXXXXXXXXXXXXX  ",
".   XXXXXXXXXXXXX  XXXXXXXXXXXXXX   XXXXXXXXXXXXXXXXXXXXXXXXXX .",
"... XXXXXXXXXXXXX XXXXXXXXXXXXXXXXX XXXXXXXXXXXXXXXXXXXXXXXXXX .",
"... XXXXXXXXXXXXX XXXXXXXXXXXXXXXXX XXXXXXXXXXXXXXXXXXXXXXXXXX .",
".... XXXXXXXXXXXX XXXXXXXXXXXXXXXXX  XXXXXXXXXXXXXXXXXXXXXXXXX .",
".... XXXXXXXXXXXX XXXXXXXXXXXXXXXXXX XXXXXXXXXXXXXXXXXXXXXXXXX .",
"....  XXXXXXXXXXX XXXXXXXXXXXXXXXXXX XXXXXXXXXXXXXXXXXXXXXXXXX .",
"...   XXXXXXXXXXXXXXXXXXXXXXXXXXXXX  XXXXXXXXXXXXXXXXXXXXXXXXX .",
".  ++ XXXXXXXXXXXXXXXXXXXXXXXXXXXXX XXXXXXXXXXXXXXXXXXXXXXXXX ..",
" O ++  XXXXXXXXXXXXXXXXXXXXXXXXXXXX XXXXXXXXXXXXXXXXXXXXXXXXX   ",
"OO ++  XXXXXXXXXXXXXXXXXXXXXXXXXXXX XXXXXXXXXXXXXXXXXXXXXXXX OOO",
"OO +++ XXXXXXXXXXXXXXXXXXXXXXXXXXXX XXXXXXXXXXXXXXXXXXXXXXXX OOO",
"OO     XXXXXXXXXXXXXXXXXXXXXXXXXXXX  XXXXXXXXXXXXXXXXXXXXXX OOOO",
"OO   O XXXXXXXXXXXXXXXXXXXXXXXXXXXXX XXXXXXXXXXXXXXXXXXXXX  OOOO",
"O OOOO  XXXXXXXXXXXXXXXXXXXXXXXXXXXXXXXXXXXXXXXXXXXXXXXXXX OOOOO",
"O OOOOO XXXXXXXXXXXXXXXXXXXXXXXXXXXXXXXXXXXXXXXXXXXXXXXXX  OOOOO",
" OOOOOO XXXXXXXXXXXXXXXXXXXXXXXXXXXXXXXXXXXXXXXXXXXXXXXXX OOOOOO",
" OOOOOO XXXXXXXXXXXXXXXXXXXXXXXXXXXXXXXXXXXXXXXXXXXXXXXX        ",
"     OOO XXXXXXXXXXXXXXXXXXXXXXXXXXXXXXXXXXXXXXXXXXXXX   . ooooo",
"ooo       XXXXXXXXXXXXXXXXXXXXXXXXXXXXXXXXXXXXXXXXXXXX ... ooooo",
"oo +++  OO  XXXXXXXXXXXXXXXXXXXXXXXXXXXXXXXXXXXXXXXXX  ...    oo",
"oo +++  OOO    XXXXXXXXXXXXXXXXXXXXXXXXXXXXXXXXX      ... +++ oo",
"oo +++  OOOO  O         XXXXXXXXXXXXXXX          .......  +++ oo",
"oo +++  OOOOOO    OOOO                   .............. o  ++  o",
"oo  ++  OOOOOOOOOOOOOOO ooooooo  ....................  ooo +++ o",
"oooo  oo   OOOOOOOOO   oooooooooo    ............    ooooo     o"
};
