/* XPM */
static char *d3feeba71d8e4f3ae80e7c2f9f566eddBNbzVvjSQEdfmds6[] = {
/* columns rows colors chars-per-pixel */
"64 64 9 1 ",
"  c black",
". c #3B3838",
"X c #0C156C",
"o c #374550",
"O c #F80000",
"+ c #825115",
"@ c #8C762E",
"# c #00F8F2",
"$ c #CFBE85",
/* pixels */
"+++++++       +++++++++++       +++++++++        +++++++++++    ",
" +++   ooooooo   ++++++  @@@@@@@  +++++  @@@@@@@@  +++++++  @@@@",
"@ + ooooooooooooo  ++  @@@@@@@@@@@  ++ @@@@@@@@@@@@ +++++ @@@@@@",
"@@ oooooooooooooooo  @@@@@@@@@@@@@@@  @@@@@@@@@@@@@@ +++ @@@@@@@",
"@@  ooooooooooooooo  @@@@@@@@@@@@@@@ @@@@@@@@@@@@@@@@ + @@@@@@@@",
"@@@ ooooooooooooooo @@@@@@@@@@@@@@@@  @@@@@@@@@@@@@@@   @@@@@@@@",
"@@@ ooooooooooooooo @@@@@@@@@@@@@@@@  @@@@@@@@@@@@@@@ o @@@@@@@@",
"@@@ ooooooooooooooo @@@@@@            @@@@@@@@@@@@@@ oo @@@@@@@@",
"@@@ ooooooooooooooo @@@    ..........    @@@@@@@@@@ ooo @@@@@@@@",
"@@ oooooooooooooooo        ..........      @@@@@@  ooooo @@@@@@@",
"@@  ooooooooooooo      XXX .......... XXX        oooooooo @@@@@@",
"  o    ooooooo   $   XXX   ..........   XXX   oooooooooooo   @@@",
" ooo ++       $$   XXX  XX .......... XX  XXX   oooooooooooo    ",
" ooo ++++++++     XX  XX   ..........   XX  XX    ooooooooooo ++",
" ooo ++++++++  OO   XX  XX .......... XX  XX   OO  oooooooooo ++",
" ooo ++       OOOOO   XXX   ........   XXX   OOOOO oooooooooo ++",
" ooo   @@@@@  OO OOOO    XX ........ XX    OOOO OO  ooooooooo ++",
"  o  @@@@@@@   OOO OOOO     ........     OOOO OOO   oooooooo +++",
"+ o  @@@@@@  X OO OOOOOOO   ........   OOOOOOO OO X  ooooooo +++",
"+  + @@@@@  XX  OOO OO OOOO ........ OOOO OO OOO  XX  ooooo ++++",
"++++ @@@@@  X X OO OO OO OO ........ OO OO OO OO X X  ooooo ++++",
"+      @@  XX X  OOO OO OO   ......   OO OO OOO  X XX  oo  +++++",
"+ oooo     X X X OO OO OO OO ...... OO OO OO OO X X X  o +     +",
" ooooooo  XX X X  OOO O  OO  ......  OO  O OOO  X X XX    ooooo ",
"o oooooo  X X XX  OO OO O  O ...... O  O OO OO  XX X X  oooooooo",
"oo ooooo  X X X X  OOO O OO  ......  OO O OOO  X X X X  oooooooo",
"oo oooo         X  OO OO O O        O O OO OO  X         ooooooo",
"o ooooo .......       O O OO ###### OO O O       ....... ooooooo",
" oooo   .............       ##    ##       ............. oo     ",
"@     @ .................. ## #### ## .................. o @@@@@",
"@@ ++ @ .................. # ##  ## # ..................  @@@@@@",
"@@@ ++  .................. # # ## # # .................. @@@@@@@",
"@@@@    .................. # # ## # # .................. @@@@@@@",
"@@@@ o  .................. # ##  ## # .................. @@@@@@@",
"@@@@ oo .................. ## #### ## .................. @@@@@@@",
"@@@ ooo .............       ##    ##       ............. @@@@@@@",
"@@ oooo .......       O O OO ###### OO O O       .......  @@@@@@",
"@ ooooo         X  OO OO O O        O O OO OO  X         + @@@@@",
" ooooo    X X X X  OOO O OO  ......  OO O OOO  X X X X   ++     ",
"o      o  X X XX  OO OO O  O ...... O  O OO OO  XX X X     ooooo",
"ooo + oo  XX X X  OOO O  OO  ......  OO  O OOO  X X XX   ooooooo",
"oooo oooo  X X X OO OO OO OO ...... OO OO OO OO X X X   oooooooo",
"oooo oooo  XX X  OOO OO OO   ......   OO OO OOO  X XX   oooooooo",
"oooo ooooo  X X OO OO OO OO ........ OO OO OO OO X X  + oooooooo",
"oooo   ooo  XX  OOO OO OOOO ........ OOOO OO OOO  XX  + oooooooo",
"ooo $$ oooo  X OO OOOOOOO   ........   OOOOOOO OO X  ++   oooooo",
"o  $$$$ oooo   OOO OOOO     ........     OOOO OOO   +  @@  ooooo",
" @ $$$$ oooo  OO OOOO    XX ........ XX    OOOO OO   @@@@@@     ",
"@@ $$$$ ooooo OOOOO   XXX   ........   XXX   OOOOO  @@@@@@@@@@@@",
"@@ $$$ +  ooo  OO   XX  XX .......... XX  XX   OO   @@@@@@@@@@@@",
"@@          oo    XX  XX   ..........   XX  XX    + @@@@@@@@@@@@",
"@@   @@@@@         XXX  XX .......... XX  XXX   o    @@@@@@@@@@@",
"@ @@@@@@@@ @@@@@@@   XXX   ..........   XXX   oooooo   @@@@@@@@@",
"@ @@@@@@@@ @@@@@@@@    XXX .......... XXX    oooooooo   @@@@@@@@",
" @@@@@@@@@ @@@@@@@@@@      ..........      oooooooooooo   @@@@@@",
" @@@@@@@@@ @@@@@@@@@@ +    ..........    oooooooooooooooo       ",
"     @@@@@ @@@@@@@@@@ +++             oooooooooooooooooooo +++++",
"+++        @@@@@@@@@   ++++       oooooooooooooooooooooooo +++++",
"++ $$$  @@@ @@@@@@@@ @@ +++ oooooooooooooooooooooooooooooo    ++",
"++ $$$  @@@ @@@@@@@@ @@@ +++ oooooooooooooooooooooooooooo $$$ ++",
"++ $$$  @@@@  @@@@  @@@@ +++  oooooooooooooooooooooooooo  $$$ ++",
"++ $$$  @@@@@@    @@@@@@ +++++ oooooooooooooooooooooooo +  $$  +",
"++  $$  @@@@@@@@@@@@@@@ +++++++  oooooooooooooooooooo  +++ $$$ +",
"++++  ++   @@@@@@@@@   ++++++++++    oooooooooooo    +++++     +"
};
