/* XPM */
static char *_4bdbce0f1bd435c8e67ef65edaa5c0ba2NeMssqlP6shENw[] = {
/* columns rows colors chars-per-pixel */
"64 64 10 1 ",
"  c #000001",
". c #3B3838",
"X c #0C156C",
"o c #364550",
"O c #374550",
"+ c #F80000",
"@ c #825115",
"# c #8C762E",
"$ c #00F8F2",
"% c #CFBE85",
/* pixels */
"####   ################## %%% @  oooooooooooooooooo  @@ ########",
"#### o   ##############  %%%%  oooooooooooooooooooooo @ ########",
"#### oo @   ########   @ %%%% oooooooooooooooooooooooo  ########",
"### ooo @@@@          @@   % oooooooooooooooooooooooooo  #######",
"## oooo @@  oooooooooo  @@  oooooooooooooooooooooooooooo  ######",
"# ooooo   oooooooooooooo  @ oooooooooooooooooooooooooooo @ #####",
" ooooo  oooooooooooooooooo  oooooooooooooooooooooooooooo @@     ",
"o      ooooooooooooooooooo            oooooooooooooooooo   ooooo",
"ooo @ ooooooooooooooooo    ..........    ooooooooooooooo ooooooo",
"oooo oooooooooooooooo      ..........      oooooooooooo oooooooo",
"oooo oooooooooooooo    XXX .......... XXX    ooooooooo  oooooooo",
"oooo oooooooooooo    XXX   ..........   XXX    oooooo @ oooooooo",
"oooo   oooooooo    XXX  XX .......... XX  XXX    oo  @@ oooooooo",
"ooo %% ooooooo    XX  XX   ..........   XX  XX     @@@@   oooooo",
"o  %%%% ooooo  ++   XX  XX .......... XX  XX   ++  @@  ##  ooooo",
" # %%%% oooo  +++++   XXX   ........   XXX   +++++   ######     ",
"## %%%% oooo  ++ ++++    XX ........ XX    ++++ ++  ############",
"## %%% @  o    +++ ++++     ........     ++++ +++    ###########",
"##           X ++ +++++++   ........   +++++++ ++ X  ###########",
"##   #####  XX  +++ ++ ++++ ........ ++++ ++ +++  XX  ##########",
"# ########  X X ++ ++ ++ ++ ........ ++ ++ ++ ++ X X   #########",
"# #######  XX X  +++ ++ ++   ......   ++ ++ +++  X XX   ########",
" ########  X X X ++ ++ ++ ++ ...... ++ ++ ++ ++ X X X     ######",
" #######  XX X X  +++ +  ++  ......  ++  + +++  X X XX  o       ",
"     ###  X X XX  ++ ++ +  + ...... +  + ++ ++  XX X X  oo @@@@@",
"@@@       X X X X  +++ + ++  ......  ++ + +++  X X X X  oo @@@@@",
"@@ %%%          X  ++ ++ + +        + + ++ ++  X         o    @@",
"@@ %%%  .......       + + ++ $$$$$$ ++ + +       .......  %%% @@",
"@@ %%%  .............       $$    $$       .............  %%% @@",
"@@ %%%  .................. $$ $$$$ $$ ..................   %%  @",
"@@  %%  .................. $ $$  $$ $ .................. @ %%% @",
"@@@@  @ .................. $ $ $$ $ $ .................. @     @",
"@@@@@@@ .................. $ $ $$ $ $ .................. @@@    ",
" @@@    .................. $ $$  $$ $ .................. @  ####",
"# @ ooo .................. $$ $$$$ $$ ..................  ######",
"## oooo .............       $$    $$       ............. #######",
"##  ooo .......       + + ++ $$$$$$ ++ + +       ....... #######",
"### ooo         X  ++ ++ + +        + + ++ ++  X         #######",
"### oooo  X X X X  +++ + ++  ......  ++ + +++  X X X X  ########",
"### oooo  X X XX  ++ ++ +  + ...... +  + ++ ++  XX X X  ########",
"### oooo  XX X X  +++ +  ++  ......  ++  + +++  X X XX  ########",
"## oooooo  X X X ++ ++ ++ ++ ...... ++ ++ ++ ++ X X X  o #######",
"##  ooooo  XX X  +++ ++ ++   ......   ++ ++ +++  X XX  oo ######",
"  o    ooo  X X ++ ++ ++ ++ ........ ++ ++ ++ ++ X X  oooo   ###",
" ooo @@     XX  +++ ++ ++++ ........ ++++ ++ +++  XX  oooooo    ",
" ooo @@@@@@  X ++ +++++++   ........   +++++++ ++ X  oooooooo @@",
" ooo @@@@@@    +++ ++++     ........     ++++ +++    oooooooo @@",
" ooo @@       ++ ++++    XX ........ XX    ++++ ++  ooooooooo @@",
" ooo   #####  +++++   XXX   ........   XXX   +++++  ooooooooo @@",
"  o  ########  ++   XX  XX .......... XX  XX   ++  ooooooooo @@@",
"@ o  #########    XX  XX   ..........   XX  XX    oooooooooo @@@",
"@  @ ##########    XXX  XX .......... XX  XXX    oooooooooo @@@@",
"@@@@ ########## @    XXX   ..........   XXX   ooooooooooooo @@@@",
"@      ######  @@ o    XXX .......... XXX    oooooooooooo  @@@@@",
"@ oooo       @@@@ ooo      ..........      ooooooooooooo @     @",
" ooooooooooo        ooo    ..........            oooo     ooooo ",
"o ooooooooo ########   ooo               #####       @@ oooooooo",
"oo ooooooo ############  oooooooooo @ ############## @ ooooooooo",
"oo ooooooo ############## oooooooo @ ################  ooooooooo",
"o ooooooo ############### ooooo   @@ ################  ooooooooo",
" oooo    ################      @@@@@ ################  oooo     ",
"#     ####################    @@@@@@@ ############## @@ oo #####",
"## @@ #################### %% @@@@@@@          ##   @@@@  ######",
"### @@ ################## %%% @@@    oooo          @@@@@ #######"
};
