/* XPM */
static char *cb772eb50f924433dfad4ad900e4a5caGt7qomTcpvqmAiOf[] = {
/* columns rows colors chars-per-pixel */
"64 64 9 1 ",
"  c black",
". c #3B3838",
"X c #0C156C",
"o c #374550",
"O c #F80000",
"+ c #825115",
"@ c #8C762E",
"# c #00F8F3",
"$ c #CFBE85",
/* pixels */
"+++++++++        +++++++++++    +++++++       +++++++++++       ",
"  +++++  @@@@@@@@  +++++++  @@@@ +++   ooooooo   ++++++  @@@@@@@",
"@@  ++ @@@@@@@@@@@@ +++++ @@@@@@@ + ooooooooooooo  ++  @@@@@@@@@",
"@@@@  @@@@@@@@@@@@@@ +++ @@@@@@@@@ oooooooooooooooo  @@@@@@@@@@@",
"@@@@ @@@@@@@@@@@@@@@@ + @@@@@@@@@@  ooooooooooooooo  @@@@@@@@@@@",
"@@@@  @@@@@@@@@@@@@@@   @@@@@@@@@@@ ooooooooooooooo @@@@@@@@@@@@",
"@@@@  @@@@@@@@@@@@@@@ o @@@@@@@@@@@ ooooooooooooooo @@@@@@@@@@@@",
"@@@@@ @@@@@@@@@@@@@@ oo @@            ooooooooooooo @@@@@@@@@@@@",
"@@@@@   @@@@@@@@@@@ ooo    ..........    oooooooooo @@@@@@@@@@@@",
"@@@@ ++  @@@@@@@@  oo      ..........      oooooooo  @@@@@@@@@@@",
"@@@@ + oo        oo    XXX .......... XXX    oooo  $ @@@@@@@@@@@",
"@@  ++ oooooooooo    XXX   ..........   XXX      $$$$  @@@@@@@@@",
"  +++ ooooooooo    XXX  XX .......... XX  XXX    $$$$ +  @@@@@@@",
"+++++ oooooooo    XX  XX   ..........   XX  XX    $$$ ++        ",
"  +++ ooooooo  OO   XX  XX .......... XX  XX   OO  $    ooooooo ",
"oo ++ oooooo  OOOOO   XXX   ........   XXX   OOOOO   ooooooooooo",
"ooo + oooooo  OO OOOO    XX ........ XX    OOOO OO  oooooooooooo",
"oooo + oooo    OOO OOOO     ........     OOOO OOO    ooooooooooo",
"ooooo  oooo  X OO OOOOOOO   ........   OOOOOOO OO X  ooooooooooo",
"ooooo + oo  XX  OOO OO OOOO ........ OOOO OO OOO  XX  oooooooooo",
"ooooo + oo  X X OO OO OO OO ........ OO OO OO OO X X  oooooooooo",
"ooooo ++   XX X  OOO OO OO   ......   OO OO OOO  X XX  ooooooooo",
"ooooo +++  X X X OO OO OO OO ...... OO OO OO OO X X X  ooooooooo",
"ooooo ++  XX X X  OOO O  OO  ......  OO  O OOO  X X XX  oooooooo",
"oooo +    X X XX  OO OO O  O ...... O  O OO OO  XX X X  oooooooo",
"ooo + @@  X X X X  OOO O OO  ......  OO O OOO  X X X X   ooooooo",
"oo + @@         X  OO OO O O        O O OO OO  X          oooooo",
"  ++ @@ .......       O O OO ###### OO O O       .......  ooooo ",
"++++ @@ .............       ##    ##       .............       +",
"+++++ @ .................. ## #### ## .................. @    ++",
"+++++   .................. # ##  ## # .................. @ $$ ++",
"+    oo .................. # # ## # # ..................  $$$ ++",
" oooooo .................. # # ## # # ..................  $$$ + ",
"ooooooo .................. # ##  ## # .................. $$$$  o",
"ooooooo .................. ## #### ## .................. $$$$ oo",
"ooooooo .............       ##    ##       .............   $ ooo",
"ooooooo .......       O O OO ###### OO O O       ....... +  oooo",
"ooooooo         X  OO OO O O        O O OO OO  X          + oooo",
"oooooooo  X X X X  OOO O OO  ......  OO O OOO  X X X X  oo  oooo",
"oooooooo  X X XX  OO OO O  O ...... O  O OO OO  XX X X  ooo oooo",
"oooooooo  XX X X  OOO O  OO  ......  OO  O OOO  X X XX  ooo  ooo",
"ooooooooo  X X X OO OO OO OO ...... OO OO OO OO X X X  ooooo  oo",
"ooooooooo  XX X  OOO OO OO   ......   OO OO OOO  X XX  oooooo oo",
"oooooooooo  X X OO OO OO OO ........ OO OO OO OO X X  ooooooo  o",
" ooooooooo  XX  OOO OO OOOO ........ OOOO OO OOO  XX  ooooooo + ",
"+    oooooo  X OO OOOOOOO   ........   OOOOOOO OO X  oooooooo ++",
"+++++          OOO OOOO     ........     OOOO OOO    ooooooo +++",
"  +++++ $$$   OO OOOO    XX ........ XX    OOOO OO  ooooooo     ",
"@@  +++ $$$$  OOOOO   XXX   ........   XXX   OOOOO  ooooo  @@@@@",
"@@@@ ++  $$$   OO   XX  XX .......... XX  XX   OO  ooooo  @@@@@@",
"@@@@@             XX  XX   ..........   XX  XX    oooo  @@@@@@@@",
"@@@@@@ oooooooo    XXX  XX .......... XX  XXX          @@@@@@@@@",
"@@@@@@ oooooooooo    XXX   ..........   XXX   @@@@@@@  @@@@@@@@@",
"@@@@@@ oooooooooooo    XXX .......... XXX    @@@@@@@@  @@@@@@@@@",
"@@@@@ ooooooooooooooo      ..........      @@@@@@@@@@ + @@@@@@@@",
"@@@@ oooooooooooooooooo    ..........    @ @@@@@@@@@@ ++ @@@@@@@",
"@@  oooooooooooooooooooooo            @@@@ @@@@@@@@@@ +++   @@@@",
"  oooooooooooooooooooooooo ++++++++        @@@@@@@@@   ++++     ",
"oooooooooooooooooooooooooo    ++++ $$$  @@@ @@@@@@@@ @@ +++ oooo",
"ooooooooooooooooooooooooo $$$ ++++ $$$  @@@ @@@@@@@@ @@@ +++ ooo",
"oooooooooooooooooooooooo  $$$ ++++ $$$  @@@@  @@@@  @@@@ +++  oo",
"ooooooooooooooooooooooo +  $$  +++ $$$  @@@@@@    @@@@@@ +++++ o",
" oooooooooooooooooooo  +++ $$$ +++  $$  @@@@@@@@@@@@@@@ +++++++ ",
"+    oooooooooooo    +++++     +++++  ++   @@@@@@@@@   +++++++++"
};
