/* XPM */
static char * slash_xpm[] = {
"64 64 3 1",
" 	c #005080",
".	c black",
"+	c white",
"                                                                ",
"                                                          ...   ",
"                                                         .+++.  ",
"                                                        .+++++. ",
"                                                       .++++++. ",
"                                                      .+++++++. ",
"                                                     .+++++++.  ",
"                                                    .+++++++.   ",
"                                                   .+++++++.    ",
"                                                  .+++++++.     ",
"                                                 .+++++++.      ",
"                                                .+++++++.       ",
"                                               .+++++++.        ",
"                                              .+++++++.         ",
"                                             .+++++++.          ",
"                                            .+++++++.           ",
"                                           .+++++++.            ",
"                                          .+++++++.             ",
"                                         .+++++++.              ",
"                                        .+++++++.               ",
"                                       .+++++++.                ",
"                                      .+++++++.                 ",
"                                     .+++++++.                  ",
"                                    .+++++++.                   ",
"                                   .+++++++.                    ",
"                                  .+++++++.                     ",
"                                 .+++++++.                      ",
"                                .+++++++.                       ",
"                               .+++++++.                        ",
"                              .+++++++.                         ",
"                             .+++++++.                          ",
"                            .+++++++.                           ",
"                           .+++++++.                            ",
"                          .+++++++.                             ",
"                         .+++++++.                              ",
"                        .+++++++.                               ",
"                       .+++++++.                                ",
"                      .+++++++.                                 ",
"                     .+++++++.                                  ",
"                    .+++++++.                                   ",
"                   .+++++++.                                    ",
"                  .+++++++.                                     ",
"                 .+++++++.                                      ",
"                .+++++++.                                       ",
"               .+++++++.                                        ",
"              .+++++++.                                         ",
"             .+++++++.                                          ",
"            .+++++++.                                           ",
"           .+++++++.                                            ",
"          .+++++++.                                             ",
"         .+++++++.                                              ",
"        .+++++++.                                               ",
"       .+++++++.                                                ",
"      .+++++++.                                                 ",
"     .+++++++.                                                  ",
"    .+++++++.                                                   ",
"   .+++++++.                                                    ",
"  .+++++++.                                                     ",
" .+++++++.                                                      ",
" .++++++.                                                       ",
" .+++++.                                                        ",
"  .+++.                                                         ",
"   ...                                                          ",
"                                                                "};
