/* XPM */
static char *aefc58edebc149b5bb0f07846c2b64c4X9dKUQ4TiTHeVlZD[] = {
/* columns rows colors chars-per-pixel */
"64 64 5 1 ",
"  c black",
". c #374550",
"X c #825115",
"o c #8C762E",
"O c #CFBE85",
/* pixels */
"XXXXXXX       XXXXXXXXXXX       XXXXXXXXX        XXXXXXXXXXX    ",
" XXX   .......   XXXXXX  ooooooo  XXXXX  oooooooo  XXXXXXX  oooo",
"o X .............  XX  ooooooooooo  XX oooooooooooo XXXXX oooooo",
"oo ................  ooooooooooooooo  oooooooooooooo XXX ooooooo",
"oo  ...............  ooooooooooooooo oooooooooooooooo X oooooooo",
"ooo ............... oooooooooooooooo  ooooooooooooooo   oooooooo",
"ooo ............... oooooooooooooooo  ooooooooooooooo . oooooooo",
"ooo ............... ooooooooooooooooo oooooooooooooo .. oooooooo",
"ooo ............... ooooooooooooooooo   ooooooooooo ... oooooooo",
"oo ................  ooooooooooooooo XX  oooooooo  ..... ooooooo",
"oo  .............  O ooooooooooooooo X ..        ........ oooooo",
"  .    .......   OOOO  ooooooooooo  XX ...................   ooo",
" ... XX       OOOOOOO X  ooooooo  XXX ......................    ",
" ... XXXXXXXX OOOOOOO XX        XXXXX ....................... XX",
" ... XXXXXXXX OOOOOO    .......   XXX ....................... XX",
" ... XX      X OOOO  ............. XX ....................... XX",
" ...   oooooo  OOO  ............... X ....................... XX",
"  .  oooooooooo OO ................. X ..................... XXX",
"X .  oooooooooo   ...................  ..................... XXX",
"X  X oooooooooo X ................... X ................... XXXX",
"XXXX oooooooooo X ................... X ................... XXXX",
"X      oooooo  XX ................... XX  ...............  XXXXX",
"X ....       XXXX ................... XXXX ............. X     X",
" ...........        ................. XXX        ....     ..... ",
". ......... oooooooo   ............. X   ooooo       XX ........",
".. ....... oooooooooooo  .......... X oooooooooooooo X .........",
".. ....... oooooooooooooo ........ X oooooooooooooooo  .........",
". ....... ooooooooooooooo .....   XX oooooooooooooooo  .........",
" ....    oooooooooooooooo      XXXXX oooooooooooooooo  ....     ",
"o     oooooooooooooooooooo    XXXXXXX oooooooooooooo XX .. ooooo",
"oo XX oooooooooooooooooooo OO XXXXXXX          oo   XXXX  oooooo",
"ooo XX oooooooooooooooooo OOO XXX    ....          XXXXX ooooooo",
"oooo   oooooooooooooooooo OOO X  ..................  XX oooooooo",
"oooo .   oooooooooooooo  OOOO  ...................... X oooooooo",
"oooo .. X   oooooooo   X OOOO ........................  oooooooo",
"ooo ... XXXX          XX   O ..........................  ooooooo",
"oo .... XX  ..........  XX  ............................  oooooo",
"o .....   ..............  X ............................ X ooooo",
" .....  ..................  ............................ XX     ",
".      .................... ............................   .....",
"... X .....................  ........................... .......",
".... .......................  ......................... ........",
".... ........................ ........................  ........",
".... ........................  ...................... X ........",
"....   ...................... X  ..................  XX ........",
"... OO ...................... XXX    ..........    XXXX   ......",
".  OOOO .................... XXXXXXXX          XXXXXX  oo  .....",
" o OOOO ...................       XXXXX OOO  XXXXXXX oooooo     ",
"oo OOOO .................  ooooooo  XXX OOOOO XXXXX oooooooooooo",
"oo OOO X  ..............  oooooooooo XX  OOO  XXXXX oooooooooooo",
"oo          ..........  ooooooooooooo            XX oooooooooooo",
"oo   ooooo             ooooooooooooooo ..........    ooooooooooo",
"o oooooooo oooooooooo  ooooooooooooooo .............   ooooooooo",
"o oooooooo oooooooooo  ooooooooooooooo ..............   oooooooo",
" ooooooooo oooooooooo X ooooooooooooo .................   oooooo",
" ooooooooo oooooooooo XX ooooooooooo ....................       ",
"     ooooo oooooooooo XXX   oooooo  ...................... XXXXX",
"XXX        ooooooooo   XXXX       ........................ XXXXX",
"XX OOO  ooo oooooooo oo XXX ..............................    XX",
"XX OOO  ooo oooooooo ooo XXX ............................ OOO XX",
"XX OOO  oooo  oooo  oooo XXX  ..........................  OOO XX",
"XX OOO  oooooo    oooooo XXXXX ........................ X  OO  X",
"XX  OO  ooooooooooooooo XXXXXXX  ....................  XXX OOO X",
"XXXX  XX   ooooooooo   XXXXXXXXXX    ............    XXXXX     X"
};
