/* XPM */
static char *d78982bf58bd4a99fd2ba8de52ee21fdzOddUCeYIMffQy80[] = {
/* columns rows colors chars-per-pixel */
"64 64 3 1 ",
"  c #005080",
". c black",
"& c white",
/* pixels */
"                                                                ",
"                                                                ",
"                                                                ",
"                                  .                             ",
"                     .     ..    .&.      ..                    ",
"                    .&.   .&&.  .&&&.    .&&.                   ",
"                   .&&&.  .&&.  .&&&.   .&&&&.                  ",
"                   .&&&.  .&&.  .&&&.   .&&&&.                  ",
"               .   .&&&.  .&&.   .&.    .&&&&.                  ",
"              .&.   .&.    ..    ...    .&&&&.                  ",
"             .&&&.  ...    ...........  .&&&&.                  ",
"             .&&&.     ....&&&&&&&&&&&.. .&&.                   ",
"             .&&&.   ..&&&&&&&&&&&&&&&&&. ..                    ",
"              .&.  ..&&&&&&&&&&&&&&&&&&&&.                      ",
"              ... .&&&&&&&&&&&&&&&&&&&&&&.                      ",
"                 .&&&&&&&&&&&&&&&&&&&&&&&&.                     ",
"                .&&&&&&&&&&&&&&&&&&&&&&&&&&.                    ",
"               .&&&&&&&&&&&&&&&&&&&&&&&&&&&.                    ",
"               .&&&&&&&&&&&&&&&&&&&&&&&&&&&.                    ",
"               .&&&&&&&&&&&&&&&&&&&&&&&&&&&.                    ",
"               .&&&&&&&&&&&&&&&&&&&&&&&&&&&&.                   ",
"               .&&&&&&&&&&&&&&&&&&&&&&&&&&&&.                   ",
"               .&&&&&&&&&&&&&&&&&&&&&&&&&&&&.                   ",
"                .&&&&&&&&&&&&&&&&&&&&&&&&&&.                    ",
"                .&&&&&&&&&&&&&&&&&&&&&&&&&&.                    ",
"                 .&&&&&&&&&&&&&&&&&&&&&&&&&.                    ",
"                 .&&&&&&&&&&&&&&&&&&&&&&&&.                     ",
"                 .&&&&&&&&&&&&&&&&&&&&&&&&.                     ",
"                 ..&&&&&&&&&&&&&&&&&&&&&&.                      ",
"                  .&&&&&&&&&&&&&&&&&&&&&.                       ",
"                  .&&&&&&&&&&&&&&&&&&&&.                        ",
"                  .&&&&&&&&&&&&&&&&&&&&.                        ",
"                  .&&&&&&&&&&&&&&&&&&&.                         ",
"                  ..&&&&&&&&&&&&&&&&&&.                         ",
"                   .&&&&&&&&&&&&&&&&&.                          ",
"                   .&&&&&&&&&&&&&&&&&.                          ",
"                   .&&&&&&&&&&&&&&&&&.                          ",
"                   .&&&&&&&&&&&&&&&&&.                          ",
"                   .&&&&&&&&&&&&&&&&.                           ",
"                   .&&&&&&&&&&&&&&&&.                           ",
"                   .&&&&&&&&&&&&&&&&.                           ",
"                    .&&&&&&&&&&&&&&&.                           ",
"                    .&&&&&&&&&&&&&&&.                           ",
"                    .&&&&&&&&&&&&&&&.                           ",
"                    .&&&&&&&&&&&&&&&.                           ",
"                    .&&&&&&&&&&&&&&&.                           ",
"                    .&&&&&&&&&&&&&&&.                           ",
"                    .&&&&&&&&&&&&&&&&.                          ",
"                    .&&&&&&&&&&&&&&&&.                          ",
"                    .&&&&&&&&&&&&&&&&.                          ",
"                     .&&&&&&&&&&&&&&&.                          ",
"                     .&&&&&&&&&&&&&&&&.                         ",
"                     .&&&&&&&&&&&&&&&&.                         ",
"                     .&&&&&&&&&&&&&&&&..                        ",
"                     .&&&&&&&&&&&&&&&&..                        ",
"                     .&&&&&&&&&&&&&&&&&.                        ",
"                     .&&&&&&&&&&&&&&&&&.                        ",
"                     .&&&&&&&&&&&&&&&&&.                        ",
"                      .&&&&&&&&&&&&&&&&.                        ",
"                      .&&&&&&&&&&&&&&&.                         ",
"                       .&&&&&&&&&&&&&&.                         ",
"                        .&&&&&&&&&&&..                          ",
"                         ..&&&&&&&..                            ",
"                           .......                              "
};
