/* XPM */
static char *_82d3c95f32f482583f091e270ddbe84u9Zbe9NtDH9zN45S[] = {
/* columns rows colors chars-per-pixel */
"64 64 3 1 ",
"  c black",
". c #335A77",
"X c #43667F",
/* pixels */
"                                                                ",
"                                                                ",
"    ........................................................    ",
"     .XXXXXXXXXXXXXXXXXXXXXXXXXXXXXXXXXXXXXXXXXXXXXXXX.....     ",
"  .   .XXXXXXXXXXXXXXXXXXXXXXXXXXXXXXXXXXXXXXXXXXXXXX.....   .  ",
"  ..   .XXXXXXXXXXXXXXXXXXXXXXXXXXXXXXXXXXXXXXXXXXXX.....   ..  ",
"  ...   .XXXXXXXXXXXXXXXXXXXXXXXXXXXXXXXXXXXXXXXXXX.....   .X.  ",
"  ....   .XXXXXXXXXXXXXXXXXXXXXXXXXXXXXXXXXXXXXXXX.....   .XX.  ",
"  .....   .XXXXXXXXXXXXXXXXXXXXXXXXXXXXXXXXXXXXXX.....   .XXX.  ",
"  ......   .XXXXXXXXXXXXXXXXXXXXXXXXXXXXXXXXXXXX.....   .XXXX.  ",
"  .X.....   .XXXXXXXXXXXXXXXXXXXXXXXXXXXXXXXXXX.....   .XXXXX.  ",
"  .XX.....   .XXXXXXXXXXXXXXXXXXXXXXXXXXXXXXXX.....   .XXXXXX.  ",
"  .XXX.....   .XXXXXXXXXXXXXXXXXXXXXXXXXXXXXXX....   .XXXXXXX.  ",
"  .XXXX.....   .XXXXXXXXXXXXXXXXXXXXXXXXXXXXX....   .XXXXXXXX.  ",
"  .XXXXX.....   .XXXXXXXXXXXXXXXXXXXXXXXXXXX....   .XXXXXXXXX.  ",
"  .XXXXXX.....   .XXXXXXXXXXXXXXXXXXXXXXXXX....   .XXXXXXXXXX.  ",
"  .XXXXXXX.....   .XXXXXXXXXXXXXXXXXXXXXXX....   .XXXXXXXXXXX.  ",
"  .XXXXXXXXX....   .XXXXXXXXXXXXXXXXXXXXX....   .XXXXXXXXXXXX.  ",
"  .XXXXXXXXXX....   .XXXXXXXXXXXXXXXXXXX....   .XXXXXXXXXXXXX.  ",
"  .XXXXXXXXXXX....   .XXXXXXXXXXXXXXXXX....   .XXXXXXXXXXXXXX.  ",
"  .XXXXXXXXXXXX....   .XXXXXXXXXXXXXXX....   .XXXXXXXXXXXXXXX.  ",
"  .XXXXXXXXXXXXX....   .XXXXXXXXXXXXX....   .XXXXXXXXXXXXXXXX.  ",
"  .XXXXXXXXXXXXXX....   .XXXXXXXXXXXX...   .XXXXXXXXXXXXXXXXX.  ",
"  .XXXXXXXXXXXXXXX....   .XXXXXXXXXX...   .XXXXXXXXXXXXXXXXXX.  ",
"  .XXXXXXXXXXXXXXXX....   .XXXXXXXX...   .XXXXXXXXXXXXXXXXXXX.  ",
"  .XXXXXXXXXXXXXXXXX....   .XXXXXX...   .XXXXXXXXXXXXXXXXXXXX.  ",
"  .XXXXXXXXXXXXXXXXXXX...   .XXXX...   .XXXXXXXXXXXXXXXXXXXXX.  ",
"  .XXXXXXXXXXXXXXXXXXXX...   .XX...   .XXXXXXXXXXXXXXXXXXXXXX.  ",
"  .XXXXXXXXXXXXXXXXXXXXX...   ....   .XXXXXXXXXXXXXXXXXXXXXXX.  ",
"  .XXXXXXXXXXXXXXXXXXXXXX...   ..   .XXXXXXXXXXXXXXXXXXXXXXXX.  ",
"  .XXXXXXXXXXXXXXXXXXXXXXX...      .XXXXXXXXXXXXXXXXXXXXXXXXX.  ",
"  .XXXXXXXXXXXXXXXXXXXXXXXX...    ..XXXXXXXXXXXXXXXXXXXXXXXXX.  ",
"  .XXXXXXXXXXXXXXXXXXXXXXXXX..    ...XXXXXXXXXXXXXXXXXXXXXXXX.  ",
"  .XXXXXXXXXXXXXXXXXXXXXXXXX.      ...XXXXXXXXXXXXXXXXXXXXXXX.  ",
"  .XXXXXXXXXXXXXXXXXXXXXXXX.   ..   ...XXXXXXXXXXXXXXXXXXXXXX.  ",
"  .XXXXXXXXXXXXXXXXXXXXXXX.   ....   ...XXXXXXXXXXXXXXXXXXXXX.  ",
"  .XXXXXXXXXXXXXXXXXXXXXX.   ...XX.   ...XXXXXXXXXXXXXXXXXXXX.  ",
"  .XXXXXXXXXXXXXXXXXXXXX.   ...XXXX.   ....XXXXXXXXXXXXXXXXXX.  ",
"  .XXXXXXXXXXXXXXXXXXXX.   ...XXXXXX.   ....XXXXXXXXXXXXXXXXX.  ",
"  .XXXXXXXXXXXXXXXXXXX.   ...XXXXXXXX.   ....XXXXXXXXXXXXXXXX.  ",
"  .XXXXXXXXXXXXXXXXXX.   ....XXXXXXXXX.   ....XXXXXXXXXXXXXXX.  ",
"  .XXXXXXXXXXXXXXXXX.   ....XXXXXXXXXXX.   ....XXXXXXXXXXXXXX.  ",
"  .XXXXXXXXXXXXXXXX.   ....XXXXXXXXXXXXX.   ....XXXXXXXXXXXXX.  ",
"  .XXXXXXXXXXXXXXX.   ....XXXXXXXXXXXXXXX.   ....XXXXXXXXXXXX.  ",
"  .XXXXXXXXXXXXXX.   ....XXXXXXXXXXXXXXXXX.   ....XXXXXXXXXXX.  ",
"  .XXXXXXXXXXXXX.   ....XXXXXXXXXXXXXXXXXXX.   ....XXXXXXXXXX.  ",
"  .XXXXXXXXXXXX.   ....XXXXXXXXXXXXXXXXXXXXX.   ....XXXXXXXXX.  ",
"  .XXXXXXXXXXX.   ....XXXXXXXXXXXXXXXXXXXXXXX.   ....XXXXXXXX.  ",
"  .XXXXXXXXXX.   ....XXXXXXXXXXXXXXXXXXXXXXXXX.   ....XXXXXXX.  ",
"  .XXXXXXXXX.   ....XXXXXXXXXXXXXXXXXXXXXXXXXXX.   .....XXXXX.  ",
"  .XXXXXXXX.   .....XXXXXXXXXXXXXXXXXXXXXXXXXXXX.   .....XXXX.  ",
"  .XXXXXXX.   .....XXXXXXXXXXXXXXXXXXXXXXXXXXXXXX.   .....XXX.  ",
"  .XXXXXX.   .....XXXXXXXXXXXXXXXXXXXXXXXXXXXXXXXX.   .....XX.  ",
"  .XXXXX.   .....XXXXXXXXXXXXXXXXXXXXXXXXXXXXXXXXXX.   .....X.  ",
"  .XXXX.   .....XXXXXXXXXXXXXXXXXXXXXXXXXXXXXXXXXXXX.   ......  ",
"  .XXX.   .....XXXXXXXXXXXXXXXXXXXXXXXXXXXXXXXXXXXXXX.   .....  ",
"  .XX.   .....XXXXXXXXXXXXXXXXXXXXXXXXXXXXXXXXXXXXXXXX.   ....  ",
"  .X.   .....XXXXXXXXXXXXXXXXXXXXXXXXXXXXXXXXXXXXXXXXXX.   ...  ",
"  ..   .....XXXXXXXXXXXXXXXXXXXXXXXXXXXXXXXXXXXXXXXXXXXX.   ..  ",
"  .   .....XXXXXXXXXXXXXXXXXXXXXXXXXXXXXXXXXXXXXXXXXXXXXX.   .  ",
"     .....XXXXXXXXXXXXXXXXXXXXXXXXXXXXXXXXXXXXXXXXXXXXXXXX.     ",
"    ........................................................    ",
"                                                                ",
"                                                                "
};
